<?xml version="1.0" standalone="no"?>
<!DOCTYPE svg PUBLIC "-//W3C//DTD SVG 20010904//EN"
 "http://www.w3.org/TR/2001/REC-SVG-20010904/DTD/svg10.dtd">
<svg version="1.0" xmlns="http://www.w3.org/2000/svg"
 width="407.000000pt" height="407.000000pt" viewBox="0 0 407.000000 407.000000"
 preserveAspectRatio="xMidYMid meet">
<metadata>
Created by potrace 1.11, written by Peter Selinger 2001-2013
</metadata>
<g transform="translate(0.000000,407.000000) scale(0.100000,-0.100000)"
fill="#000000" stroke="none">
<path d="M0 2035 l0 -2035 2035 0 2035 0 0 2035 0 2035 -2035 0 -2035 0 0
-2035z m1818 1780 c72 6 234 7 292 1 19 -2 65 -7 103 -11 l67 -7 0 31 c0 19 4
30 10 26 6 -3 7 -18 4 -32 -4 -16 -2 -28 7 -34 22 -14 26 -11 37 29 l10 37 1
-37 c1 -31 5 -39 25 -44 31 -7 46 1 46 26 0 10 5 22 10 25 7 4 8 -8 4 -37 -4
-32 -3 -39 5 -28 6 8 11 10 11 4 0 -5 23 -16 50 -23 52 -13 57 -20 40 -52 -6
-11 -7 -19 -1 -19 5 0 12 11 15 24 3 13 13 26 21 30 13 5 13 1 1 -29 -8 -19
-11 -35 -7 -35 5 0 12 11 15 25 7 27 13 30 34 17 9 -7 10 -15 3 -35 -6 -14 -6
-29 -2 -32 5 -3 14 9 20 25 5 17 15 30 20 30 6 0 13 11 17 25 3 14 11 25 16
25 6 0 7 -8 3 -17 -19 -44 -11 -53 70 -90 44 -20 86 -42 93 -50 20 -19 31 -16
44 12 11 25 28 34 28 15 0 -6 -7 -22 -16 -35 -14 -21 -14 -25 -2 -25 8 0 23
-8 34 -18 19 -18 19 -18 37 11 10 16 21 27 24 23 3 -3 -2 -17 -12 -32 -12 -19
-14 -29 -6 -37 12 -12 15 -9 41 33 4 8 11 12 15 8 4 -3 -1 -19 -11 -33 -18
-27 -18 -28 11 -52 54 -44 63 -46 81 -18 9 14 20 25 25 25 16 0 10 -26 -10
-44 -19 -17 -18 -18 17 -51 l37 -35 20 25 c12 14 24 25 28 25 15 0 6 -26 -13
-40 -11 -8 -20 -18 -20 -22 0 -14 23 -9 44 10 16 13 18 13 8 1 -6 -9 -9 -19
-5 -22 3 -4 12 1 19 11 7 9 14 12 14 5 0 -6 -7 -18 -15 -27 -20 -19 -19 -22
10 -53 l24 -27 26 24 c17 16 25 19 25 9 0 -8 -9 -20 -20 -27 -19 -12 -19 -14
-4 -37 15 -23 18 -23 37 -10 31 22 46 18 18 -4 l-24 -18 22 -31 c20 -29 51
-35 51 -11 0 5 10 9 23 9 20 0 19 -2 -10 -21 -28 -18 -31 -23 -20 -40 15 -23
25 -24 49 -2 10 9 21 13 25 9 4 -4 -6 -18 -22 -31 l-30 -24 28 3 c15 1 30 6
35 11 4 4 1 5 -7 0 -10 -6 -12 -4 -7 4 6 9 11 9 22 0 13 -10 10 -15 -15 -32
-39 -24 -40 -32 -1 -12 36 18 40 19 40 1 0 -7 -10 -20 -21 -28 -16 -10 -20
-20 -15 -36 7 -21 9 -21 37 -7 16 9 33 13 38 11 15 -9 10 -56 -6 -56 -8 0 -11
4 -8 10 3 6 -1 7 -10 3 -9 -3 -13 -9 -8 -12 4 -3 8 -15 8 -25 0 -20 31 -31 41
-15 7 12 34 11 34 -2 0 -5 -14 -15 -30 -21 -25 -8 -28 -13 -19 -24 10 -12 15
-12 31 3 13 11 22 13 29 6 7 -7 1 -14 -20 -23 -36 -14 -38 -21 -13 -43 13 -12
21 -14 29 -6 6 6 17 9 25 6 8 -3 3 -9 -14 -16 -16 -6 -28 -15 -28 -21 0 -13
17 -13 25 0 8 13 35 13 35 0 0 -5 -11 -12 -25 -16 -14 -3 -25 -10 -25 -15 0
-12 37 -11 45 1 9 15 25 12 25 -4 0 -7 -13 -16 -30 -19 -16 -4 -30 -12 -30
-18 0 -7 12 -9 34 -5 37 7 59 -9 35 -25 -11 -7 -10 -9 4 -9 28 0 19 -17 -13
-23 -16 -4 -30 -11 -30 -17 0 -13 33 -13 47 1 8 8 13 8 18 0 4 -7 -6 -14 -24
-17 -17 -4 -31 -13 -31 -20 0 -10 6 -11 26 -3 15 5 29 7 32 5 3 -3 -7 -10 -22
-15 -29 -12 -36 -41 -8 -41 12 0 13 -3 5 -8 -10 -6 -10 -26 -2 -93 15 -115 23
-133 54 -125 14 4 25 2 25 -4 0 -5 -9 -10 -19 -10 -11 0 -23 -5 -27 -11 -4 -7
3 -10 19 -7 15 1 26 -1 27 -7 0 -5 -11 -11 -25 -13 -30 -4 -42 -38 -28 -85 7
-25 15 -33 36 -35 26 -3 27 -5 27 -73 0 -67 -1 -69 -25 -69 -14 0 -25 -5 -25
-11 0 -7 10 -9 25 -7 19 4 25 1 25 -13 0 -15 -8 -19 -32 -20 -31 0 -31 -1 -10
-10 13 -5 28 -7 33 -3 5 3 9 -5 9 -17 0 -19 -4 -21 -30 -15 -33 6 -34 5 -45
-57 -4 -28 -3 -38 7 -36 35 4 46 -2 44 -27 -1 -23 -4 -25 -34 -19 -24 4 -34 2
-38 -10 -8 -20 -4 -24 29 -27 19 -2 27 -8 27 -21 0 -15 -5 -17 -35 -11 -28 5
-35 3 -35 -9 0 -8 12 -20 28 -26 27 -11 27 -11 -6 -5 -22 4 -33 1 -37 -8 -10
-32 -9 -51 5 -55 13 -4 13 -3 0 6 -12 9 -11 11 7 11 12 0 25 -4 28 -10 3 -5 0
-10 -7 -10 -10 0 -9 -3 2 -10 12 -8 12 -10 -3 -16 -9 -3 -14 -11 -11 -16 4 -6
-2 -7 -17 -3 -38 12 -43 11 -47 -7 -2 -12 5 -19 22 -24 14 -3 26 -10 26 -15 0
-13 -38 -11 -42 3 -4 12 -28 3 -28 -11 0 -4 7 -16 16 -27 8 -10 13 -13 9 -6
-4 7 0 12 9 12 19 0 20 -15 5 -59 -13 -36 -11 -36 -49 -16 -17 9 -30 12 -30 7
0 -5 11 -14 25 -20 23 -11 36 -42 16 -42 -5 0 -11 -12 -15 -27 -3 -16 -13 -37
-21 -48 -15 -18 -16 -19 -45 -2 -17 11 -30 14 -30 7 0 -6 11 -16 25 -22 14 -6
25 -17 25 -25 0 -17 -4 -16 -40 2 -23 12 -31 12 -37 2 -13 -22 -11 -35 6 -31
9 2 23 0 31 -6 13 -9 13 -11 0 -20 -8 -5 -11 -10 -7 -10 5 0 -1 -14 -13 -30
-12 -17 -26 -28 -31 -25 -5 4 -6 0 -3 -8 3 -8 -17 -41 -47 -78 -29 -34 -49
-64 -43 -66 22 -8 36 -22 33 -32 -3 -8 -13 -4 -28 10 l-23 22 -25 -32 -25 -31
-25 20 c-33 26 -44 17 -12 -9 20 -16 22 -22 11 -33 -10 -10 -8 -16 10 -30 13
-9 19 -20 15 -25 -5 -4 -17 3 -27 17 -11 14 -20 21 -20 16 0 -5 -7 -3 -15 4
-13 11 -15 10 -10 -1 6 -18 -3 -30 -37 -52 -16 -10 -28 -24 -28 -33 0 -8 -4
-13 -9 -9 -20 12 -22 -17 -2 -31 22 -16 29 -44 11 -44 -5 0 -10 4 -10 9 0 5
-19 29 -42 53 -30 30 -37 35 -25 15 16 -25 16 -70 1 -54 -3 3 -17 -5 -31 -19
-13 -13 -27 -24 -31 -24 -4 0 -15 -7 -25 -14 -18 -14 -18 -16 -2 -40 21 -31
10 -35 -14 -5 l-18 22 -70 -37 -71 -38 14 -33 c12 -30 12 -33 -6 -38 -13 -3
-26 3 -37 19 -17 22 -21 24 -51 13 -27 -9 -31 -15 -26 -33 12 -36 10 -49 -8
-51 -11 -2 -20 7 -27 27 -6 16 -15 27 -20 23 -7 -4 -7 -15 -1 -31 15 -37 12
-44 -14 -44 -17 0 -26 7 -30 26 -6 21 -11 25 -29 19 -12 -3 -51 -14 -87 -23
-59 -16 -65 -20 -62 -42 1 -13 0 -31 -3 -39 -5 -14 -7 -14 -15 -1 -6 8 -10 25
-10 38 0 12 -5 22 -10 22 -7 0 -8 -13 -5 -34 4 -20 2 -36 -4 -40 -6 -4 -13 8
-17 29 -5 26 -11 35 -23 33 -11 -3 -15 -13 -13 -36 3 -41 -16 -42 -25 -2 -6
33 -26 36 -31 4 -9 -54 -42 -79 -42 -31 0 12 -5 29 -11 37 -8 11 -9 6 -5 -21
9 -49 -6 -58 -20 -12 l-12 38 -1 -38 c-1 -46 -20 -41 -22 6 -2 30 -2 30 -9 -8
l-7 -40 -2 38 c-1 30 -5 37 -21 37 -16 0 -20 -7 -20 -36 0 -22 -4 -33 -11 -29
-6 4 -7 19 -4 36 6 25 3 29 -14 29 -15 0 -20 -8 -23 -32 -2 -25 -8 -33 -23
-33 -16 0 -19 6 -17 28 2 15 -1 27 -6 27 -5 0 -10 -6 -9 -12 1 -38 -4 -47 -20
-41 -10 4 -21 11 -25 17 -5 7 -8 7 -8 -1 0 -7 -4 -13 -10 -13 -5 0 -10 13 -10
29 0 16 -6 31 -15 35 -11 4 -15 -2 -15 -22 0 -15 -5 -34 -10 -42 -7 -11 -10
-4 -10 28 0 31 -4 42 -15 42 -10 0 -15 -11 -15 -35 0 -19 -4 -35 -10 -35 -5 0
-10 16 -10 35 0 28 -4 35 -20 35 -15 0 -20 -7 -20 -25 0 -18 -5 -25 -20 -25
-16 0 -19 5 -13 30 4 23 2 30 -10 30 -8 0 -22 3 -31 6 -13 5 -16 -1 -16 -25 0
-17 -4 -31 -9 -31 -6 0 -7 16 -4 35 4 23 2 35 -6 35 -6 0 -11 -13 -11 -29 0
-36 -13 -46 -40 -31 -15 8 -19 17 -14 36 4 17 2 29 -7 35 -22 14 -27 11 -34
-21 -4 -18 -13 -30 -22 -30 -12 0 -14 8 -10 37 5 26 3 33 -3 23 -5 -8 -10 -23
-10 -32 0 -10 -7 -18 -15 -18 -17 0 -19 9 -6 43 8 20 6 27 -5 31 -27 10 -32 7
-39 -24 -4 -17 -13 -30 -22 -30 -12 0 -14 7 -9 35 5 27 4 35 -8 35 -10 0 -13
-6 -9 -17 4 -11 3 -14 -5 -9 -8 4 -12 1 -12 -10 0 -10 -3 -15 -6 -11 -4 3 -2
20 4 36 14 41 0 40 -21 -1 l-17 -33 5 38 c7 44 1 47 -20 10 -16 -28 -16 -9 0
29 12 30 -23 21 -39 -9 -8 -16 -15 -22 -16 -15 0 7 -5 10 -10 7 -12 -7 -10 32
3 51 4 7 -2 14 -15 17 -12 4 -23 5 -23 4 -20 -33 -35 -49 -35 -36 0 8 5 20 12
27 6 6 10 13 7 15 -29 24 -77 57 -81 57 -3 0 -8 -9 -11 -20 -7 -28 -34 -36
-56 -16 -10 9 -21 13 -24 10 -16 -17 -18 29 -1 47 14 15 15 22 5 32 -10 9 -16
7 -31 -11 -21 -25 -33 -28 -49 -9 -8 10 -7 19 4 33 17 23 19 34 5 34 -5 0 -10
-6 -10 -13 0 -19 -20 -36 -36 -30 -18 7 -18 27 1 43 8 7 15 17 15 23 0 5 -10
-2 -21 -17 -26 -34 -37 -27 -13 8 20 32 10 49 -12 18 -16 -23 -30 -21 -73 10
-14 10 -20 21 -16 29 5 7 4 10 -3 5 -10 -6 -62 40 -62 56 0 4 10 16 22 28 12
11 17 20 11 20 -5 0 -18 -9 -28 -20 -18 -20 -18 -20 -47 7 -15 15 -28 33 -28
40 0 7 -3 13 -7 13 -5 0 -16 14 -26 31 -17 30 -17 31 5 49 13 10 20 21 17 24
-3 4 -26 -12 -51 -34 -57 -50 -74 -53 -22 -4 22 20 31 33 22 30 -10 -3 -18 -1
-18 4 0 6 2 10 4 10 2 0 12 3 22 7 13 5 15 3 9 -7 -5 -8 -4 -11 3 -6 6 4 9 13
6 21 -5 13 -10 13 -34 0 -16 -8 -31 -15 -33 -15 -11 0 -15 45 -5 57 16 20 32
16 17 -4 -13 -16 -12 -17 3 -4 16 12 16 16 3 41 -16 31 -35 48 -35 31 0 -5 -9
-13 -21 -16 -23 -8 -65 28 -54 45 3 6 2 10 -4 10 -5 0 -19 16 -31 35 -18 29
-20 38 -10 50 7 8 19 15 26 15 8 0 14 7 14 16 0 12 -6 15 -20 10 -11 -3 -29
-9 -40 -12 -31 -10 -25 22 8 41 25 15 15 14 -23 -1 -10 -4 -19 4 -27 23 -7 15
-15 30 -18 33 -3 3 -6 10 -7 15 0 6 -16 56 -34 113 l-32 104 -35 -7 c-23 -4
-32 -3 -27 4 3 6 17 11 30 11 13 0 27 5 30 10 8 12 8 12 -33 1 -17 -5 -32 -6
-32 -1 0 5 13 11 29 15 21 4 28 11 24 22 -4 11 -14 13 -40 8 -27 -5 -34 -3
-31 7 5 13 8 14 44 17 14 1 16 9 11 42 -6 48 -10 54 -34 45 -15 -6 -15 -8 -3
-16 20 -13 3 -12 -21 0 -27 15 -24 27 12 34 30 6 30 7 28 62 -2 55 -3 56 -30
50 -16 -3 -31 -1 -34 4 -4 6 7 10 23 10 l30 0 1 94 2 95 -28 3 c-15 2 -29 10
-31 18 -2 12 8 15 50 13 41 -2 47 0 28 6 -23 8 -21 9 15 11 36 2 34 3 -24 14
-38 6 -66 17 -69 25 -4 11 3 13 32 8 20 -3 36 -2 36 4 0 5 15 9 33 10 l32 1
-33 9 c-41 12 -34 27 10 21 18 -2 30 -1 26 3 -4 4 -18 9 -30 10 -13 1 -26 3
-29 4 -3 0 -4 14 -1 30 4 27 1 30 -29 33 -45 4 -34 23 11 21 30 -1 35 2 36 23
2 19 -4 25 -31 30 -30 5 -31 7 -21 30 8 18 18 23 41 21 42 -3 47 29 6 38 -18
4 -31 13 -31 22 0 12 7 14 34 9 34 -6 35 -5 45 31 11 40 4 53 -31 53 -20 0
-21 1 -12 24 5 13 14 15 39 10 26 -5 33 -2 37 13 3 10 9 26 13 36 5 11 3 17
-7 17 -8 0 -23 7 -34 16 -18 14 -18 15 6 8 14 -4 30 -9 37 -11 6 -3 20 15 30
39 l19 43 -30 14 c-18 8 -26 15 -18 18 7 3 19 -1 27 -7 12 -10 18 -10 31 1 14
11 13 14 -10 26 -14 8 -26 18 -26 23 0 15 11 12 32 -7 19 -17 20 -16 39 7 24
33 24 47 -2 55 -13 4 -17 10 -11 14 6 4 -4 16 -24 30 -51 35 -35 36 29 1 43
-23 57 -27 57 -15 0 8 -9 19 -20 25 -11 6 -20 15 -20 21 0 6 4 8 9 5 5 -4 7 3
4 14 -6 24 9 26 41 4 33 -21 48 2 18 27 -23 18 -29 39 -11 39 6 0 17 -7 25
-15 9 -8 20 -15 26 -15 5 0 8 7 4 15 -3 9 0 15 10 15 11 0 14 6 10 16 -3 9 -6
21 -6 27 0 7 -4 6 -10 -3 -11 -18 -25 -7 -17 15 7 17 37 21 37 5 0 -5 6 -10
13 -10 6 1 2 9 -10 19 -31 26 -14 51 20 28 32 -21 43 -10 18 17 -14 15 -17 26
-11 36 8 13 14 13 42 -3 33 -17 33 -17 11 2 -13 11 -23 25 -23 32 0 7 11 3 25
-11 29 -28 46 -19 20 10 -22 25 -9 26 19 3 15 -13 14 -9 -4 11 -18 21 -20 28
-8 23 13 -5 15 -2 11 11 -6 15 -5 15 10 4 9 -8 16 -17 15 -20 -2 -19 4 -22 23
-12 16 9 18 14 9 25 -6 8 -18 11 -26 8 -8 -3 -14 -1 -14 5 0 18 24 20 43 4 27
-24 43 -1 19 28 -18 22 -18 25 -2 42 20 22 46 15 56 -14 4 -14 9 -17 16 -10 7
7 4 17 -10 32 -17 18 -18 26 -9 41 6 10 14 16 17 14 4 -2 26 14 50 36 l43 40
31 -28 c17 -15 23 -18 13 -7 -10 12 -20 32 -22 44 -3 13 -9 28 -15 34 -5 5
-10 17 -10 26 0 9 11 2 29 -19 29 -35 52 -29 31 8 -17 33 -11 38 9 8 12 -18
21 -25 26 -18 3 6 11 9 16 6 5 -4 9 0 9 7 1 7 12 0 27 -17 l26 -30 -17 28
c-10 16 -16 30 -14 31 41 27 60 36 68 31 6 -3 10 -1 10 4 0 6 7 11 16 11 11 0
15 -6 11 -20 -3 -11 -1 -18 4 -14 5 3 9 0 9 -5 0 -6 5 -11 11 -11 7 0 8 7 4
18 -16 38 -15 55 2 24 26 -50 51 -24 28 31 -13 31 11 18 29 -15 9 -18 14 -24
10 -13 -17 54 -17 57 2 53 10 -2 18 -11 18 -21 -1 -9 2 -14 7 -11 5 3 9 0 9
-7 0 -7 3 -9 6 -6 4 4 -1 18 -10 31 -15 24 -15 26 6 37 18 10 24 8 35 -7 7
-10 13 -22 13 -28 0 -5 3 -7 6 -4 3 4 0 16 -6 29 -11 19 -10 21 4 16 10 -4 16
-1 16 8 0 20 19 19 25 0 3 -8 7 -22 10 -31 3 -9 7 -15 10 -12 2 2 -2 26 -10
53 -17 54 -19 89 -6 81 4 -3 11 -19 14 -36 5 -21 12 -30 27 -30 15 0 20 -7 20
-24 0 -14 4 -27 8 -30 4 -2 6 11 4 30 -3 26 -1 34 12 34 9 0 16 8 16 19 0 10
8 22 17 25 18 7 33 -9 33 -36 0 -10 5 -18 11 -18 7 0 8 11 4 31 -5 22 -4 29 4
25 6 -4 11 -18 11 -32 0 -15 6 -24 16 -24 13 0 15 7 10 38 -5 27 -4 33 3 22 7
-9 11 -10 11 -3 0 6 12 13 28 15 21 2 28 9 31 33 l5 30 4 -28 3 -28 67 6z
m-11 23 c-3 -8 -6 -5 -6 6 -1 11 2 17 5 13 3 -3 4 -12 1 -19z m949 -170 c-19
-27 -21 -19 -4 18 7 14 14 21 16 15 2 -6 -4 -21 -12 -33z m84 -33 c0 -8 -4
-15 -10 -15 -5 0 -7 7 -4 15 4 8 8 15 10 15 2 0 4 -7 4 -15z m-1560 -4 c0 -5
3 -18 6 -28 6 -16 5 -16 -9 2 -19 23 -21 35 -7 35 6 0 10 -4 10 -9z m-462
-321 c7 -11 9 -20 4 -20 -10 0 -32 22 -32 32 0 15 15 8 28 -12z m-24 -39 c3
-5 -1 -11 -9 -14 -9 -4 -12 -1 -8 9 6 16 10 17 17 5z m-404 -531 c13 -9 13
-10 0 -10 -8 0 -22 5 -30 10 -13 9 -13 10 0 10 8 0 22 -5 30 -10z m-77 -247
c-7 -2 -19 -2 -25 0 -7 3 -2 5 12 5 14 0 19 -2 13 -5z m-43 -819 c0 -2 -15 -4
-32 -3 -27 0 -29 2 -13 8 18 8 45 4 45 -5z m2698 -1184 c7 -11 9 -20 4 -20 -4
0 -13 9 -20 20 -7 11 -9 20 -4 20 4 0 13 -9 20 -20z m-1798 -2 c0 -19 -18 -44
-25 -36 -4 3 0 15 7 27 15 24 18 26 18 9z m39 -50 c-8 -14 -14 -18 -17 -10 -4
13 17 46 25 38 3 -2 -1 -15 -8 -28z m1061 -268 c0 -11 -2 -20 -4 -20 -2 0 -6
9 -9 20 -3 11 -1 20 4 20 5 0 9 -9 9 -20z"/>
<path d="M1702 3765 c0 -16 2 -22 5 -12 2 9 2 23 0 30 -3 6 -5 -1 -5 -18z"/>
<path d="M2596 3675 c-3 -9 -6 -22 -5 -28 0 -7 5 -1 10 12 5 13 8 26 5 28 -2
2 -6 -3 -10 -12z"/>
<path d="M1040 3503 c0 -6 8 -17 18 -24 16 -13 16 -13 2 6 -8 11 -16 22 -17
24 -2 2 -3 0 -3 -6z"/>
<path d="M1840 3424 c0 -39 -2 -41 -25 -36 -20 3 -25 10 -25 34 0 19 -4 28
-12 25 -8 -2 -12 -17 -10 -34 3 -26 -1 -32 -25 -37 -15 -4 -35 -9 -45 -12 -12
-3 -18 3 -23 26 -6 29 -28 40 -40 20 -3 -5 -1 -10 5 -10 7 0 9 -7 6 -16 -4 -9
-2 -13 5 -8 7 4 10 1 7 -7 -9 -27 -43 -22 -56 8 -11 28 -11 28 -7 -7 5 -34 4
-34 -6 -7 -6 15 -15 27 -20 27 -5 0 -4 -12 2 -27 7 -20 6 -28 -3 -35 -23 -14
-37 -9 -44 17 -7 28 -29 33 -38 10 -3 -8 -1 -15 5 -15 21 0 4 -45 -18 -48 -13
-2 -23 -8 -23 -13 0 -6 -4 -8 -9 -5 -5 3 -29 -3 -52 -14 -42 -18 -55 -38 -36
-51 5 -4 7 -13 5 -20 -4 -9 -10 -5 -18 13 -7 15 -17 25 -22 22 -4 -3 -1 -15 7
-27 19 -26 19 -37 2 -37 -8 0 -19 11 -25 25 -10 22 -14 24 -32 13 -11 -7 -20
-16 -20 -20 0 -5 -6 -8 -14 -8 -8 0 -21 -8 -28 -17 -7 -10 -20 -19 -28 -21 -8
-2 -22 -11 -31 -22 -9 -11 -20 -16 -25 -12 -5 4 -2 -2 6 -13 8 -11 19 -23 25
-27 5 -4 6 -10 2 -14 -4 -4 -15 0 -25 9 -10 10 -22 17 -27 17 -18 0 -170 -141
-197 -183 -4 -8 -13 -5 -26 6 -10 9 -25 17 -33 17 -8 -1 -3 -10 14 -24 l28
-23 -43 -54 c-67 -85 -69 -91 -33 -113 19 -12 25 -21 17 -24 -7 -2 -21 3 -31
12 -17 16 -20 16 -35 1 -22 -23 -20 -34 9 -41 14 -3 25 -13 25 -20 0 -11 -4
-12 -19 -4 -24 12 -51 13 -51 1 0 -5 11 -12 25 -15 14 -4 25 -11 25 -17 0 -6
-7 -8 -15 -5 -20 8 -42 14 -32 9 4 -3 5 -9 2 -14 -4 -5 0 -6 8 -3 8 3 18 0 22
-6 11 -18 -3 -24 -30 -12 -16 7 -26 8 -30 1 -4 -5 8 -14 25 -21 20 -7 28 -14
22 -20 -6 -6 -17 -6 -30 1 -28 15 -42 14 -42 -3 0 -8 14 -19 30 -25 29 -9 37
-21 24 -33 -3 -4 -17 0 -32 8 -15 8 -30 14 -33 14 -11 0 -17 -50 -8 -56 5 -3
9 0 9 5 0 20 38 11 43 -9 6 -23 0 -24 -39 -10 -15 6 -29 9 -31 6 -6 -6 -32
-117 -33 -138 0 -12 8 -18 24 -18 14 0 28 -5 31 -11 5 -7 -5 -8 -29 -4 -20 4
-36 3 -37 -1 0 -5 -3 -21 -5 -36 -3 -20 1 -30 16 -38 11 -6 25 -8 30 -5 5 3
11 1 15 -4 3 -5 -3 -14 -12 -20 -10 -6 -12 -11 -5 -11 6 0 12 -11 12 -25 0
-22 -4 -25 -35 -25 -44 0 -46 -17 -3 -23 l33 -4 -33 -1 c-41 -2 -33 -22 9 -22
24 0 30 -4 27 -17 -2 -12 -13 -18 -33 -18 -24 0 -31 -5 -33 -23 -3 -18 1 -23
15 -22 10 1 25 2 33 1 12 -1 12 -3 2 -10 -18 -11 32 -24 59 -16 11 4 19 2 19
-4 0 -6 -13 -11 -30 -11 -20 0 -30 -5 -30 -15 0 -11 7 -14 28 -10 l27 5 -26
-10 c-23 -10 -26 -15 -22 -49 4 -36 3 -39 -26 -44 -41 -8 -40 -29 0 -25 25 2
33 -2 40 -19 6 -16 5 -23 -4 -23 -8 0 -8 -3 2 -9 22 -14 5 -63 -21 -59 -12 2
-23 -3 -25 -10 -4 -9 5 -11 39 -6 39 7 42 6 29 -9 -7 -10 -24 -17 -37 -17 -15
0 -24 -6 -24 -15 0 -12 8 -14 40 -9 48 8 55 -9 10 -25 -17 -5 -30 -12 -30 -15
0 -3 12 -1 26 4 28 11 44 6 44 -15 0 -7 -14 -16 -31 -20 -19 -4 -27 -11 -22
-16 6 -6 19 -6 35 0 23 9 26 6 42 -30 10 -22 19 -45 20 -52 1 -7 5 -17 9 -24
5 -8 -4 -18 -25 -29 -18 -10 -28 -19 -21 -21 7 -2 21 1 33 7 28 15 49 1 25
-17 -25 -17 -7 -16 25 2 37 21 60 18 28 -3 -22 -14 -25 -21 -16 -30 7 -7 8
-12 3 -12 -4 0 2 -8 13 -19 12 -10 19 -20 17 -23 -3 -3 1 -11 9 -17 12 -10 20
-9 41 5 23 15 25 15 19 0 -3 -9 -12 -16 -20 -16 -8 0 -14 -3 -14 -6 0 -11 23
-50 52 -86 l29 -38 22 20 c11 11 24 20 29 20 15 0 8 -20 -12 -32 -26 -17 -25
-21 10 -59 l29 -32 20 24 c10 13 23 21 27 16 4 -4 -2 -18 -14 -30 l-22 -24 21
-19 c20 -18 21 -18 39 6 10 14 21 22 24 19 4 -3 -3 -18 -14 -32 l-20 -26 22
-15 c16 -11 25 -13 35 -5 7 6 11 15 8 19 -3 4 2 10 10 14 19 7 19 1 -1 -29
-16 -24 -11 -51 7 -40 5 4 9 1 9 -6 0 -6 7 -17 16 -24 15 -11 15 -14 -1 -38
-10 -16 -13 -27 -6 -27 6 0 11 4 11 8 0 5 6 16 13 25 10 14 15 14 30 2 17 -12
17 -15 2 -45 -13 -24 -13 -31 -3 -28 7 2 17 14 23 26 10 22 26 28 38 16 3 -4
-1 -17 -10 -30 -9 -14 -13 -27 -10 -31 4 -3 12 6 18 21 7 14 16 26 22 26 5 0
37 -15 71 -33 33 -18 80 -41 103 -50 l42 -16 3 26 c2 15 9 29 17 31 11 4 12
-3 7 -30 -6 -32 -4 -35 26 -45 41 -12 58 -7 58 17 0 10 5 22 11 26 8 4 9 -3 4
-25 -8 -35 7 -45 83 -53 40 -5 43 -4 52 26 l10 31 -5 -32 c-2 -18 0 -33 5 -33
5 0 11 15 13 33 l4 32 1 -37 c2 -35 3 -36 50 -43 26 -3 84 -6 129 -7 l82 -1 4
-31 c2 -17 5 -3 5 32 2 61 22 91 22 32 0 -19 5 -30 14 -30 9 0 16 -13 19 -32
4 -32 4 -32 5 5 1 24 6 36 15 35 8 -2 11 8 11 30 -1 17 2 32 7 32 5 0 9 -13 9
-28 0 -35 9 -45 27 -31 7 6 13 9 13 7 0 -3 24 0 53 7 53 12 58 19 46 65 -2 9
4 16 17 18 17 2 24 -4 32 -27 12 -35 17 -38 26 -15 3 8 2 12 -4 9 -6 -3 -10
-2 -10 4 0 5 -3 16 -6 25 -4 10 -1 16 9 16 9 0 18 -13 22 -31 5 -20 10 -28 17
-21 6 6 6 17 -1 30 -8 15 -7 23 3 31 12 10 15 6 21 -19 4 -16 11 -30 16 -30 6
0 6 8 -1 19 -19 36 -11 48 38 61 26 7 53 18 61 24 13 10 33 -7 44 -38 2 -6 7
-8 11 -4 4 3 2 16 -4 28 -6 11 -9 26 -7 33 3 7 10 -1 16 -17 6 -16 14 -26 17
-23 3 3 -6 29 -21 59 -18 37 -20 46 -7 29 15 -19 24 -22 50 -16 28 6 33 3 42
-19 6 -17 14 -24 25 -20 14 6 14 9 0 30 -16 25 -13 44 7 44 5 0 7 -7 4 -16 -4
-10 -2 -13 6 -8 7 5 9 2 6 -8 -9 -22 20 -17 67 11 53 33 57 40 34 70 -24 29
-8 42 20 17 24 -22 31 -20 31 9 0 14 -4 25 -10 25 -15 0 -7 44 10 51 8 4 24
-1 35 -10 20 -16 20 -16 2 5 -16 19 -16 23 -2 34 12 10 18 10 30 0 9 -7 14
-19 11 -27 -7 -17 24 -2 43 21 10 12 9 17 -8 28 -23 14 -28 38 -9 38 6 0 22
-10 35 -22 13 -12 23 -16 23 -10 0 7 -9 17 -20 24 -22 14 -27 43 -7 52 9 5 9
7 -1 12 -6 3 -10 10 -6 15 3 5 -3 9 -13 10 -10 0 -13 3 -6 5 7 3 22 0 34 -7
19 -10 25 -9 36 7 7 11 21 29 30 42 23 32 41 63 49 85 3 9 9 17 13 17 4 0 15
14 26 32 17 29 13 42 -10 39 -3 -1 -13 7 -24 18 -10 10 -25 21 -32 23 -8 3
-11 9 -7 13 4 4 23 -2 43 -14 20 -11 42 -21 48 -21 10 0 77 125 77 144 0 3 -7
6 -15 6 -21 0 -95 40 -95 52 0 5 10 6 23 2 12 -4 31 -8 42 -10 11 -2 29 -6 40
-9 16 -5 23 2 38 37 25 63 23 78 -12 78 -22 0 -28 4 -26 18 2 9 4 19 4 21 1 3
6 0 13 -7 28 -28 46 -14 58 46 6 31 13 63 15 70 3 8 -6 12 -27 12 -17 0 -28 3
-24 7 4 4 17 8 29 8 15 0 23 7 25 23 3 19 -1 22 -27 22 -28 0 -31 3 -31 29 0
28 2 29 35 24 28 -4 35 -2 35 11 0 9 -4 16 -10 16 -5 0 -10 20 -10 44 0 82 -9
104 -44 109 l-31 4 33 1 c17 1 32 6 32 10 0 10 -17 106 -31 179 l-10 52 -30
-11 c-17 -6 -33 -8 -36 -4 -3 3 2 8 11 11 9 3 23 7 31 10 32 10 15 27 -20 21
-44 -9 -49 16 -7 38 31 17 25 21 -12 6 -16 -6 -27 -6 -31 0 -4 6 0 10 7 10 8
0 23 6 33 14 18 13 18 15 -5 70 -18 44 -26 56 -39 50 -38 -15 -49 -15 -55 3
-4 9 -3 19 2 21 20 6 47 31 41 37 -4 3 -13 0 -20 -7 -18 -16 -54 -23 -44 -9 3
6 -1 14 -9 17 -24 9 -19 29 9 42 30 14 31 22 7 52 -16 20 -21 21 -41 11 -32
-18 -38 -5 -10 18 13 11 20 20 15 21 -5 0 -17 -7 -27 -16 -17 -15 -20 -15 -34
0 -14 14 -14 16 5 28 21 13 28 48 9 48 -6 0 -19 -10 -30 -22 -15 -19 -18 -20
-19 -6 0 10 9 22 20 28 20 10 20 12 3 35 -21 29 -27 30 -47 10 -19 -19 -30
-19 -46 0 -10 12 -8 18 11 34 22 18 23 21 8 36 -16 16 -18 16 -37 -3 -26 -26
-37 -16 -11 11 17 18 17 23 5 36 -13 13 -17 12 -34 -9 -16 -20 -21 -21 -40 -9
-29 18 -35 39 -17 59 8 9 15 21 15 26 0 5 -5 2 -10 -6 -7 -12 -12 -12 -22 -2
-9 9 -9 12 0 12 7 0 12 5 12 11 0 8 -5 8 -15 -1 -12 -10 -13 -16 -4 -27 9 -10
9 -17 1 -25 -9 -9 -12 -8 -12 6 0 9 -4 15 -9 12 -13 -9 -7 19 8 38 22 27 3 31
-24 6 -27 -25 -35 -22 -9 4 8 9 14 21 12 28 -2 6 -14 -4 -26 -23 -21 -34 -22
-33 -26 14 -1 6 4 12 11 12 6 0 15 4 20 9 5 5 3 6 -4 2 -8 -4 -13 -2 -13 6 -1
8 -6 5 -16 -7 -8 -11 -12 -25 -10 -32 3 -7 -1 -10 -10 -6 -8 3 -13 12 -10 19
3 7 0 16 -6 20 -7 4 -8 3 -4 -4 10 -17 -13 -15 -30 2 -18 18 -18 25 1 46 14
15 14 18 2 23 -9 3 -19 -4 -26 -20 -12 -27 -34 -26 -39 2 -3 12 0 15 10 10 10
-6 11 -5 1 5 -11 12 -15 11 -27 -6 -23 -30 -39 -6 -21 30 17 33 19 39 6 32 -5
-4 -11 -2 -13 3 -1 5 -15 13 -30 16 -21 5 -28 3 -28 -7 0 -8 -7 -23 -16 -34
-14 -18 -15 -16 -10 26 l5 45 -20 -40 -19 -40 5 41 c4 37 2 42 -18 48 -37 10
-45 7 -55 -21 -6 -16 -11 -21 -12 -13 -1 11 -4 9 -11 -5 -7 -15 -8 -11 -4 16
6 43 -4 54 -62 63 -23 3 -48 9 -57 12 -11 4 -16 0 -16 -14 0 -31 -11 -53 -23
-45 -5 3 -27 8 -47 9 -36 4 -38 2 -45 -32 -7 -42 -18 -38 -19 8 -1 28 -5 33
-26 33 -22 0 -25 4 -22 33 1 17 -3 32 -8 32 -6 0 -10 -6 -9 -12 6 -47 0 -53
-51 -54 -48 -1 -50 0 -50 27 0 15 -4 31 -10 34 -6 4 -10 -8 -10 -27 0 -30 -3
-34 -30 -36 -25 -2 -30 1 -30 20 0 13 -5 30 -10 38 -7 11 -10 4 -10 -26z m427
-46 c-3 -7 -5 -2 -5 12 0 14 2 19 5 13 2 -7 2 -19 0 -25z m-1047 -273 c0 -8
-4 -15 -10 -15 -5 0 -10 7 -10 15 0 8 5 15 10 15 6 0 10 -7 10 -15z m1630 -54
c-6 -12 -15 -21 -21 -21 -10 0 -5 13 14 38 15 19 20 7 7 -17z m-1740 -37 c0
-3 -7 -1 -15 6 -8 7 -15 17 -15 22 0 5 7 3 15 -6 8 -8 15 -18 15 -22z m1115
-425 c0 -8 -13 -16 -30 -19 -23 -4 -35 -15 -50 -45 -17 -35 -20 -60 -20 -190
0 -125 3 -155 18 -182 35 -66 97 -50 97 24 0 30 -3 33 -28 33 -20 0 -29 5 -29
16 0 22 46 38 73 25 18 -8 22 -21 28 -85 4 -42 5 -80 2 -84 -7 -12 -166 -5
-164 7 1 3 -7 24 -17 46 -14 30 -19 73 -23 176 -6 199 14 272 83 299 25 9 60
-3 60 -21z m-1214 -139 c4 -85 7 -192 8 -237 l1 -83 30 0 c23 0 30 -5 30 -19
0 -14 -10 -20 -47 -25 -51 -7 -67 4 -58 39 2 12 0 121 -5 244 -5 123 -7 228
-4 233 3 5 13 8 22 6 15 -3 18 -25 23 -158z m2254 150 c-3 -5 -13 -10 -21 -10
-8 0 -12 5 -9 10 3 6 13 10 21 10 8 0 12 -4 9 -10z m-2039 -64 c22 -4 45 -29
62 -65 24 -54 23 -292 -1 -342 -34 -68 -104 -71 -136 -5 -22 47 -34 197 -23
292 11 97 30 135 64 128 13 -3 28 -6 34 -8z m236 0 c25 -3 48 -26 66 -65 24
-54 23 -292 -1 -342 -37 -76 -104 -71 -139 8 -19 42 -21 67 -21 188 0 111 3
149 17 182 15 36 22 42 40 37 12 -3 29 -6 38 -8z m232 -12 c3 -8 -1 -17 -9
-19 -8 -3 -22 -7 -30 -10 -15 -4 -20 -28 -16 -74 1 -14 18 -54 37 -91 36 -71
44 -137 24 -197 -12 -33 -47 -57 -76 -51 -28 5 -24 41 4 43 32 2 42 21 42 81
0 39 -8 66 -35 117 -52 97 -48 195 8 216 26 10 43 5 51 -15z m1170 -9 c-3 -7
-18 -15 -32 -17 -41 -5 -54 -45 -60 -178 -4 -109 7 -188 26 -191 4 -1 19 -2
35 -3 33 -3 41 -10 34 -31 -4 -8 -18 -15 -34 -15 -89 1 -108 37 -108 215 0
127 12 194 39 220 35 33 112 33 100 0z m-981 3 c27 -14 14 -33 -22 -32 -30 2
-31 1 -31 -41 0 -24 -3 -50 -6 -58 -4 -11 3 -17 24 -22 48 -10 52 -45 7 -45
-21 0 -23 -5 -27 -87 -3 -49 -3 -93 -1 -99 2 -6 17 -11 33 -11 36 0 45 -7 37
-28 -9 -22 -102 -21 -111 1 -3 9 -6 107 -6 219 0 184 2 205 18 214 17 10 53 6
85 -11z m546 -4 c26 -33 27 -94 2 -149 -17 -39 -17 -43 0 -122 10 -45 23 -91
29 -102 15 -28 12 -61 -4 -61 -21 0 -24 8 -52 113 l-24 92 3 -100 c2 -84 0
-100 -14 -103 -14 -2 -17 15 -22 119 -4 67 -7 171 -7 231 l0 108 34 0 c25 0
40 -7 55 -26z m213 -49 c3 -38 11 -115 17 -170 26 -227 26 -217 5 -213 -14 2
-22 17 -29 53 -10 45 -14 50 -41 53 -29 3 -31 1 -40 -49 -9 -53 -19 -65 -41
-51 -8 5 -5 35 12 112 22 99 36 184 50 293 6 45 8 48 33 45 26 -3 27 -6 34
-73z m378 64 c0 3 5 -2 11 -12 15 -25 1 -40 -32 -33 l-29 6 0 -66 c0 -46 4
-64 13 -63 27 3 37 -2 37 -21 0 -15 -7 -20 -25 -20 l-25 0 0 -100 0 -100 35 0
c28 0 35 -4 35 -20 0 -18 -7 -20 -54 -20 -34 0 -55 5 -58 13 -2 6 -4 106 -3
220 2 229 2 230 61 217 19 -4 34 -5 34 -1z m-2325 -179 c8 -13 -25 -13 -45 0
-12 8 -9 10 12 10 15 0 30 -4 33 -10z m-58 -376 c-3 -3 -12 -4 -19 -1 -8 3 -5
6 6 6 11 1 17 -2 13 -5z m1370 -246 c-1 -46 -3 -9 -3 82 0 91 2 128 3 83 2
-46 2 -120 0 -165z m-51 -73 c-5 -14 -12 8 -34 102 -11 46 -17 85 -13 88 6 7
52 -176 47 -190z m124 91 c-13 -53 -26 -96 -30 -96 -6 0 4 50 35 179 3 13 8
21 11 18 3 -3 -4 -49 -16 -101z m-200 -37 c17 -33 29 -66 27 -72 -3 -9 -67
115 -67 129 0 15 14 -5 40 -57z m255 -9 c-16 -33 -32 -60 -37 -60 -4 0 7 29
24 65 18 35 34 62 37 60 2 -3 -8 -32 -24 -65z m-275 -79 c0 -8 -16 3 -35 25
-19 21 -34 46 -34 54 -1 8 15 -3 34 -25 19 -22 34 -46 35 -54z m324 33 c-20
-24 -39 -42 -42 -40 -7 8 62 95 71 89 4 -2 -9 -24 -29 -49z m-394 -33 c19 -16
32 -32 29 -35 -6 -7 -78 45 -79 57 0 13 15 7 50 -22z m470 20 c0 -5 -16 -21
-35 -35 -42 -32 -46 -23 -8 16 27 28 43 35 43 19z m-120 -56 c65 -36 159 -128
157 -155 -1 -10 -4 -17 -7 -15 -3 2 -28 -19 -55 -46 -141 -141 -295 -148 -444
-21 -30 26 -59 46 -64 44 -5 -1 -6 2 -2 8 3 5 2 10 -2 10 -5 0 -9 9 -10 20 -2
20 100 140 118 140 5 0 27 12 49 26 21 14 43 24 47 21 5 -3 14 -2 20 1 26 16
138 -3 193 -33z m-395 -15 c17 -11 24 -20 17 -20 -15 0 -72 28 -72 35 0 11 27
4 55 -15z m575 15 c0 -6 -69 -35 -84 -35 -6 1 5 9 24 20 34 19 60 25 60 15z
m990 -35 c0 -5 -9 -6 -20 -3 -11 3 -20 9 -20 13 0 5 9 6 20 3 11 -3 20 -9 20
-13z m-1600 -40 c12 -8 11 -10 -5 -9 -11 1 -31 5 -45 9 -24 8 -24 8 5 9 17 0
37 -4 45 -9z m630 0 c-14 -4 -34 -8 -45 -8 l-20 -1 20 9 c11 5 31 8 45 8 l25
0 -25 -8z m935 -20 c3 -5 -1 -10 -9 -10 -8 0 -18 5 -21 10 -3 6 1 10 9 10 8 0
18 -4 21 -10z m-1595 -50 c0 -5 -25 -10 -56 -10 -34 0 -53 4 -49 10 3 6 28 10
56 10 27 0 49 -4 49 -10z m624 -57 c3 -4 16 -8 29 -10 22 -4 49 -23 32 -23
-25 0 -85 22 -85 30 0 12 14 13 24 3z m-584 -13 c0 -5 -11 -10 -24 -10 -13 0
-31 -3 -40 -6 -9 -3 -16 -1 -16 4 0 9 17 14 68 21 6 0 12 -3 12 -9z m50 -45
c0 -2 -14 -12 -31 -20 -40 -21 -63 -13 -24 8 29 16 55 22 55 12z m510 -10 c17
-9 30 -20 30 -25 0 -5 -16 0 -35 11 -19 11 -40 17 -46 13 -8 -4 -9 -3 -5 4 10
16 21 15 56 -3z m-60 -35 c0 -5 9 -12 20 -15 11 -3 20 -13 20 -21 0 -19 -3
-18 -39 13 -33 29 -40 46 -16 37 8 -4 15 -10 15 -14z m-429 -16 c-30 -25 -40
-29 -42 -18 -1 8 52 44 64 44 5 0 -5 -11 -22 -26z m65 -18 c0 -13 -4 -22 -8
-20 -3 2 -16 -8 -27 -22 -12 -15 -24 -24 -27 -21 -5 5 54 87 62 87 1 0 1 -11
0 -24z m358 -68 c-6 -9 -74 74 -74 89 1 4 18 -12 40 -36 21 -25 36 -49 34 -53z
m-335 -4 c-17 -38 -33 -64 -36 -57 -4 12 56 137 63 130 3 -2 -10 -35 -27 -73z
m254 14 c37 -87 33 -96 -8 -18 -36 69 -40 80 -27 80 4 0 20 -28 35 -62z m-193
-49 c-12 -51 -23 -95 -26 -98 -8 -8 -4 28 11 96 20 88 26 105 31 100 3 -2 -5
-46 -16 -98z m160 -93 c0 -6 -3 -6 -9 0 -10 11 -41 147 -40 178 0 18 48 -154
49 -178z m-93 142 c-3 -7 -5 -2 -5 12 0 14 2 19 5 13 2 -7 2 -19 0 -25z m0
-60 c-3 -8 -6 -5 -6 6 -1 11 2 17 5 13 3 -3 4 -12 1 -19z m1004 5 c13 -16 12
-17 -3 -4 -17 13 -22 21 -14 21 2 0 10 -8 17 -17z m-1004 -160 c-2 -27 -3 -5
-3 47 0 52 1 74 3 48 2 -27 2 -69 0 -95z m-891 45 c-3 -19 -16 -38 -27 -38
-15 0 -10 22 9 36 21 17 21 17 18 2z m1754 -108 c0 -5 -4 -10 -10 -10 -5 0
-10 5 -10 10 0 6 5 10 10 10 6 0 10 -4 10 -10z m-963 -282 c-3 -7 -5 -2 -5 12
0 14 2 19 5 13 2 -7 2 -19 0 -25z"/>
<path d="M1179 2478 c-26 -48 1 -369 30 -368 17 1 32 20 41 51 12 42 13 231 0
283 -13 57 -49 75 -71 34z"/>
<path d="M1419 2478 c-16 -29 -7 -303 11 -340 7 -16 16 -28 19 -28 17 1 32 20
41 51 12 42 13 231 0 283 -13 57 -49 75 -71 34z"/>
<path d="M2380 2434 c0 -37 4 -63 9 -60 13 8 24 81 16 106 -13 40 -25 18 -25
-46z"/>
<path d="M2591 2345 c-19 -121 -19 -119 7 -121 20 -1 22 3 21 45 -1 25 -4 73
-8 106 l-6 60 -14 -90z"/>
<path d="M1950 1602 c0 -4 19 -6 43 -4 23 2 53 -1 67 -6 14 -5 30 -11 35 -12
6 -2 21 -19 35 -39 33 -49 39 -133 12 -181 -28 -50 -94 -83 -155 -77 -57 5
-94 29 -124 83 -40 69 -24 145 43 204 42 37 38 37 -27 4 -59 -30 -149 -111
-149 -135 0 -22 106 -112 121 -103 7 4 9 3 5 -4 -12 -20 62 -54 129 -60 55 -4
72 -1 117 21 66 33 130 85 122 99 -4 6 -3 8 3 5 6 -4 21 5 33 19 l24 24 -55
56 c-71 72 -154 114 -226 114 -29 0 -53 -3 -53 -8z"/>
<path d="M1980 1568 c0 -19 2 -20 10 -8 13 19 13 30 0 30 -5 0 -10 -10 -10
-22z"/>
<path d="M2010 1565 c0 -14 2 -25 4 -25 2 0 6 11 8 25 3 14 1 25 -3 25 -5 0
-9 -11 -9 -25z"/>
<path d="M1956 1558 c3 -13 11 -30 16 -38 8 -12 8 -11 4 3 -3 10 -6 27 -6 38
0 10 -5 19 -11 19 -6 0 -8 -9 -3 -22z"/>
<path d="M2036 1564 c-13 -33 -6 -49 9 -20 18 33 18 36 6 36 -5 0 -12 -7 -15
-16z"/>
<path d="M2061 1544 c-12 -27 -11 -28 4 -12 10 9 16 21 13 28 -2 7 -10 -1 -17
-16z"/>
<path d="M1936 1535 c9 -14 18 -25 20 -25 2 0 -2 11 -8 25 -6 14 -15 25 -20
25 -5 0 -1 -11 8 -25z"/>
<path d="M1892 1538 c-19 -19 -14 -35 11 -41 21 -6 21 -5 3 8 -11 8 -17 18
-13 22 4 3 17 -2 28 -13 22 -19 22 -19 10 3 -15 29 -25 35 -39 21z"/>
<path d="M2077 1524 c-10 -13 -23 -21 -29 -18 -7 4 -8 2 -4 -4 4 -6 14 -8 23
-5 11 5 14 3 9 -6 -6 -8 2 -7 23 3 35 19 41 31 10 21 -18 -6 -20 -4 -14 14 8
27 4 26 -18 -5z"/>
<path d="M1991 1502 c-8 -19 -25 -41 -38 -49 l-25 -16 24 -13 c12 -7 27 -10
32 -7 5 4 6 1 2 -5 -4 -6 -2 -22 5 -34 l12 -22 10 24 c6 14 10 28 9 32 -1 3
12 9 28 13 17 4 27 11 24 16 -3 6 -13 8 -22 4 -9 -3 -13 -3 -9 1 4 4 -1 17
-12 28 -10 12 -21 30 -23 41 -3 16 -6 14 -17 -13z"/>
<path d="M1863 1487 c5 -15 37 -22 37 -9 0 5 -9 12 -21 15 -13 3 -19 1 -16 -6z"/>
<path d="M2120 1485 c-8 -9 -8 -15 -2 -15 12 0 26 19 19 26 -2 2 -10 -2 -17
-11z"/>
<path d="M2120 1460 l-25 -8 28 -1 c15 -1 27 4 27 9 0 6 -1 10 -2 9 -2 -1 -14
-5 -28 -9z"/>
<path d="M1858 1453 c6 -2 18 -2 25 0 6 3 1 5 -13 5 -14 0 -19 -2 -12 -5z"/>
<path d="M1858 1423 c6 -2 18 -2 25 0 6 3 1 5 -13 5 -14 0 -19 -2 -12 -5z"/>
<path d="M2128 1423 c7 -3 16 -2 19 1 4 3 -2 6 -13 5 -11 0 -14 -3 -6 -6z"/>
<path d="M1870 1400 c-24 -15 -7 -19 20 -5 15 8 19 14 10 14 -8 1 -22 -3 -30
-9z"/>
<path d="M2105 1400 c28 -12 37 -12 30 0 -3 6 -16 10 -28 9 -21 0 -21 -1 -2
-9z"/>
<path d="M1888 1376 c-17 -12 -17 -14 1 -30 18 -16 20 -16 42 16 l23 33 -27
-24 c-15 -14 -30 -21 -34 -18 -3 4 2 14 13 22 10 8 15 14 9 14 -5 0 -18 -6
-27 -13z"/>
<path d="M2090 1386 c0 -2 7 -9 15 -16 9 -7 15 -8 15 -2 0 5 -7 12 -15 16 -8
3 -15 4 -15 2z"/>
<path d="M2056 1348 c8 -16 18 -27 22 -24 3 4 0 12 -6 18 -7 7 -12 17 -12 23
1 5 9 0 20 -13 10 -12 21 -18 25 -13 5 10 -27 33 -52 37 -9 2 -8 -6 3 -28z"/>
<path d="M1936 1345 c-9 -14 -13 -25 -8 -25 5 0 14 11 20 25 6 14 10 25 8 25
-2 0 -11 -11 -20 -25z"/>
<path d="M1962 1345 c-14 -31 -16 -53 -3 -39 9 9 24 64 18 64 -2 0 -9 -11 -15
-25z"/>
<path d="M2036 1335 c6 -31 11 -41 18 -34 2 2 -2 18 -10 34 l-14 30 6 -30z"/>
<path d="M1980 1323 c0 -13 5 -23 10 -23 13 0 13 11 0 30 -8 12 -10 11 -10 -7z"/>
<path d="M2010 1323 c0 -12 5 -25 10 -28 13 -8 13 15 0 35 -8 12 -10 11 -10
-7z"/>
<path d="M1871 3444 c0 -11 3 -14 6 -6 3 7 2 16 -1 19 -3 4 -6 -2 -5 -13z"/>
<path d="M1902 3440 c0 -14 2 -19 5 -12 2 6 2 18 0 25 -3 6 -5 1 -5 -13z"/>
<path d="M2071 3444 c0 -11 3 -14 6 -6 3 7 2 16 -1 19 -3 4 -6 -2 -5 -13z"/>
<path d="M2092 3435 c0 -16 2 -22 5 -12 2 9 2 23 0 30 -3 6 -5 -1 -5 -18z"/>
<path d="M1802 3430 c0 -14 2 -19 5 -12 2 6 2 18 0 25 -3 6 -5 1 -5 -13z"/>
<path d="M2162 3425 c0 -16 2 -22 5 -12 2 9 2 23 0 30 -3 6 -5 -1 -5 -18z"/>
<path d="M2191 3424 c0 -11 3 -14 6 -6 3 7 2 16 -1 19 -3 4 -6 -2 -5 -13z"/>
<path d="M2212 3420 c0 -14 2 -19 5 -12 2 6 2 18 0 25 -3 6 -5 1 -5 -13z"/>
<path d="M928 3398 c5 -20 17 -24 27 -8 3 6 1 10 -5 10 -6 0 -9 4 -6 8 3 5 -1
9 -8 9 -8 0 -11 -8 -8 -19z"/>
<path d="M830 3336 c0 -2 7 -9 15 -16 9 -7 15 -8 15 -2 0 5 -7 12 -15 16 -8 3
-15 4 -15 2z"/>
<path d="M2635 3300 c-3 -5 -1 -10 4 -10 6 0 11 5 11 10 0 6 -2 10 -4 10 -3 0
-8 -4 -11 -10z"/>
<path d="M3240 3294 c0 -8 5 -12 10 -9 6 4 8 11 5 16 -9 14 -15 11 -15 -7z"/>
<path d="M2743 3225 c0 -8 4 -12 9 -9 5 3 6 10 3 15 -9 13 -12 11 -12 -6z"/>
<path d="M3309 3143 c-13 -16 -12 -17 4 -4 16 13 21 21 13 21 -2 0 -10 -8 -17
-17z"/>
<path d="M620 3080 c0 -5 5 -10 10 -10 6 0 10 5 10 10 0 6 -4 10 -10 10 -5 0
-10 -4 -10 -10z"/>
<path d="M3216 2725 c-3 -8 -1 -15 4 -15 6 0 10 7 10 15 0 8 -2 15 -4 15 -2 0
-6 -7 -10 -15z"/>
<path d="M270 2372 c0 -5 7 -9 15 -9 8 0 15 4 15 9 0 4 -7 8 -15 8 -8 0 -15
-4 -15 -8z"/>
<path d="M588 2143 c7 -3 16 -2 19 1 4 3 -2 6 -13 5 -11 0 -14 -3 -6 -6z"/>
<path d="M598 2113 c6 -2 18 -2 25 0 6 3 1 5 -13 5 -14 0 -19 -2 -12 -5z"/>
<path d="M3785 2030 c-3 -5 -1 -10 4 -10 6 0 11 5 11 10 0 6 -2 10 -4 10 -3 0
-8 -4 -11 -10z"/>
<path d="M3396 1975 c-3 -9 0 -15 8 -15 7 0 13 7 13 15 0 8 -4 15 -8 15 -4 0
-9 -7 -13 -15z"/>
<path d="M3680 1480 c-9 -6 -10 -10 -3 -10 6 0 15 5 18 10 8 12 4 12 -15 0z"/>
<path d="M3577 1259 c7 -7 15 -10 18 -7 3 3 -2 9 -12 12 -14 6 -15 5 -6 -5z"/>
<path d="M804 1244 c-18 -14 -18 -15 4 -4 12 6 22 13 22 15 0 8 -5 6 -26 -11z"/>
<path d="M815 1220 c-3 -5 -2 -10 4 -10 5 0 13 5 16 10 3 6 2 10 -4 10 -5 0
-13 -4 -16 -10z"/>
<path d="M530 1120 c-9 -6 -10 -10 -3 -10 6 0 15 5 18 10 8 12 4 12 -15 0z"/>
<path d="M3430 1040 c0 -5 5 -10 11 -10 5 0 7 5 4 10 -3 6 -8 10 -11 10 -2 0
-4 -4 -4 -10z"/>
<path d="M2930 986 c0 -2 7 -7 16 -10 8 -3 12 -2 9 4 -6 10 -25 14 -25 6z"/>
<path d="M3205 760 c10 -11 20 -20 23 -20 3 0 -3 9 -13 20 -10 11 -20 20 -23
20 -3 0 3 -9 13 -20z"/>
<path d="M3170 762 c0 -5 10 -17 21 -28 22 -19 22 -19 10 3 -12 24 -31 39 -31
25z"/>
<path d="M3056 647 c3 -10 9 -15 12 -12 3 3 0 11 -7 18 -10 9 -11 8 -5 -6z"/>
<path d="M2052 560 c0 -14 2 -19 5 -12 2 6 2 18 0 25 -3 6 -5 1 -5 -13z"/>
<path d="M2820 521 c0 -6 4 -13 10 -16 6 -3 7 1 4 9 -7 18 -14 21 -14 7z"/>
<path d="M1297 415 c-4 -8 -2 -17 3 -20 6 -4 10 -4 10 -1 0 2 3 11 6 20 3 9 2
16 -4 16 -5 0 -12 -7 -15 -15z"/>
<path d="M2271 244 c0 -11 3 -14 6 -6 3 7 2 16 -1 19 -3 4 -6 -2 -5 -13z"/>
</g>
</svg>
