<svg version="1" xmlns="http://www.w3.org/2000/svg" width="793.333" height="793.333" viewBox="0 0 595.000000 595.000000"><path d="M305.5 49c-2.7.4-6.3 1.3-7.8 1.9-1.7.6-2.6.7-2.2.1.7-1.1-5.5-.2-6.9 1.1-.5.4-1.5.5-2.2.2-.8-.3-1.4-.1-1.4.5 0 .8-3.8 2.3-7 2.6-1.9.3-10.5 6.4-15.7 11.1-5.9 5.4-11.1 11.7-8.2 10 .9-.6 1.1-.2.7 1.3-.4 1.2-.5 2.2-.4 2.2.2 0 2.2-2.6 4.4-5.8 3.8-5.5 7.2-9.2 7.2-7.9 0 .3-1.1 2.7-2.5 5.3-1.4 2.6-2.5 5.6-2.5 6.8.1 2 .2 2 2.3-.5 1.2-1.4 3.2-3.9 4.4-5.5l2.2-2.9-1.8 4.5c-2.2 5.2-3.4 12.3-2.1 11.5.6-.3 2.4-2.6 4.1-5.1 3.8-5.6 4.7-5.1 1.8 1-3.8 7.7-.8 7.5 4.3-.3l3-4.6-.6 4.5-.7 4.5 4.3-7.7c4.5-8.1 6.3-9.9 4.8-4.8-2.1 7.4-6.6 13.4-16.2 21.8-5.4 4.6-9.8 8.7-9.8 9.1 0 .3-4 4.7-8.9 9.7-9.9 10.2-13.7 17.2-10.9 20 1.4 1.4 2.1.7 7.2-7 3.1-4.7 7.3-9.8 9.2-11.3 2-1.5 4.8-3.8 6.3-5.1l2.6-2.4-3.2.6c-1.8.3-3.3.4-3.3.1 0-.2 5.2-4.8 11.5-10.1C283 88.7 287 84 287 80.4c0-2.8 8.3-16.5 12.1-19.9 1.8-1.7 2.7-2.2 2-1.2-.8.9-1.1 2-.8 2.3.3.3 1.2-.3 1.9-1.5s1.7-2.1 2.2-2.1c.5 0 0 1-1.2 2.3-1.2 1.3-2 2.6-1.6 2.9.3.4.1 1.6-.6 2.7-.7 1.4-.7 2.1-.1 2.1s-.5 2.8-2.4 6.3-3.5 6.8-3.5 7.3 2.3-3.1 5-8.1c2.8-4.9 6.1-10 7.3-11.3 1.2-1.3 2-2.6 1.7-2.9-.3-.3.5-.8 1.8-1 2.2-.3 2.2-.2-.8 4.2-7 10.2-12.1 25.1-9.1 26.9.6.4 1.1.1 1.1-.6 0-1 .2-1 .8-.1.5.8 2.9-3 6.5-10.5 5.4-11.3 11.2-19.7 15-22.2 3.4-2.1 2.9-.3-1.2 4.4-5.3 6.1-10.5 15.5-14.1 25.5-3.9 10.6-3.9 14.8 0 6.6l2.8-6-.4 11-.4 11 2.5-10.5c2.8-12.1 7.8-27.1 10.5-31.8 1.1-1.7 1.7-3.8 1.4-4.5-.2-.7.9-2.6 2.6-4.2 1.6-1.6 3-2.6 3-2.2 0 .4 1.1 0 2.4-.9 1.4-.8 2.7-1.5 3-1.5 2.3.3 3.6-.1 3.6-1.2 0-3-21.4-4.7-34.5-2.7zm17.5 6.3c0 .1-2.5 2.7-5.7 5.7l-5.6 5.5 2.3-4c3.3-5.7 5-7.5 7.2-7.5 1 0 1.8.1 1.8.3zM273 65c-.6 1.1-1.3 2-1.6 2-.2 0 0-.9.6-2s1.3-2 1.6-2c.2 0 0 .9-.6 2z"/><path d="M340.9 54.1c-1.6 1.7-2.9 2.8-2.9 2.4 0-.4-.9.3-2.1 1.6l-2 2.4.6-2.5.6-2.5-1.5 2.6c-2.9 4.9-8.7 26.3-9.8 35.8-1.2 10.8-.2 28.1 1.3 22.6.5-1.7 1.3-8.7 1.9-15.8 1.5-18.2 4.8-35.8 7-37.2.4-.3.4 1.1-.1 3-.6 2-.8 4.4-.6 5.3.3 1 .5.6.6-1 .1-2.9 1.6-4.5 2.6-2.8.4.6 1.1.8 1.6.5.5-.4.7 2 .4 5.7-.4 5.9-.4 6 .5 1.8 1.7-7.9 2-9 2.9-9 .4 0 1.1 6.2 1.5 13.7.5 11.7.3 15.3-1.3 23.3-1.1 5.2-1.9 9.6-1.6 9.8.2.2 1.1-2.1 2.1-5.2 1-3 2.1-5.3 2.5-5 .5.2.5 1.2.2 2.2-.9 2.5 1.2.4 3.2-3.3l1.7-3-.7 5c-1.8 14.7-1.8 14.8-.7 14.1 1.7-1 1.5.5-.9 6-4.6 10.5-10.7 19.2-21.4 30.4-6 6.3-11.3 11.4-11.6 11.3-.4-.1-1.5.7-2.4 1.7-1.9 2.1-3.5 2.6-3.5 1.2 0-.4 2.5-3.7 5.5-7.2 3-3.6 5.5-7.3 5.5-8.3 0-1.6-.7-1.4-4.7 1.5-2.7 1.9-5.3 3.7-5.9 4.1-.6.3 1.4-4.3 4.5-10.4l5.6-10.9.1-10.8.2-10.7-.7 9c-.4 4.9-1.3 10.8-2.1 13-1.9 5.8-6.8 15.5-10 19.5-3.7 4.7-12 22.6-12 25.9 0 1.4.4 3.2.9 4 1.3 2.1 3.3.2 7.1-6.5 3.3-5.6 12.6-16.2 11.6-13.1-.7 2.3 17-14.2 23.6-21.8 2.5-3 7.7-11.1 11.5-18l6.8-12.6.3 8.3c.2 4.6.1 9.2-.2 10.3-.8 3.1-7.5 10.7-15.2 17.2-6.8 5.7-10.5 9.6-13.3 13.7-.8 1.2 1.4-.6 4.9-3.9l6.3-6-2.6 4.5c-4.8 8.6-4.1 9.6 1.7 2.2 3.2-3.9 6.1-7.2 6.6-7.2 1.9 0 15.8-14.2 18.2-18.6 4.8-8.9 5.7-19.4 3.1-36.4l-.8-5.5-.8 9.5c-1.2 15.2-2.2 12.2-1.9-5.4.2-11.8-.1-18.2-1.2-22.7-1-4.6-1.1-6.7-.4-7.7 1.6-1.9 2.8.3 2.8 5.4 0 4.6 1.7 10.4 3.1 10.4.5 0 .9-3.7 1-8.3.1-7.8.1-8 1.4-5.2 1.4 2.9 1.4 2.9 1.5-3.3 0-3.4.4-6.2.9-6.2 1.2 0 5.8 11.7 7.6 19.3.8 3.4 1.8 11.6 2.2 18.2.5 9.5.8 11.4 1.6 9 .5-1.7.9-7.7 1-13.5.1-14.7-3.4-25.9-10.8-34.1-3.5-3.9-5.4-3.3-5.6 1.8l-.1 2.8-1.2-2.9c-.9-2-1.5-2.5-1.9-1.5-.3.8-.6.2-.6-1.4-.1-3.3-1.6-3.6-2.6-.5-.7 2.2-.7 2.2-1.2.3-.7-2.7-4.1-5.5-6.7-5.5-1.2 0-3.1.7-4.4 1.5-2 1.5-2.1 1.5-1.5-.1.4-1.2.3-1.5-.5-1-.7.4-1.2.1-1.2-.8 0-2.5-1.9-1.9-5.1 1.5zm7 17.6c0 3.4-.1 3.6-1.1 1.6-.6-1.2-.8-2.9-.5-3.7 1.1-2.7 1.7-1.8 1.6 2.1zm9.3-.8c.3.3.9 3.2 1.3 6.4.6 4.9.5 5.6-.8 5.1-.9-.3-1.9-1.9-2.2-3.5-.4-1.6-1.3-2.9-2.1-2.9-.9 0-1.4-1.2-1.4-3.6 0-3.2.2-3.5 2.3-2.9 1.2.4 2.5 1 2.9 1.4zM365 119l-1.1 2.5.6-2.5c.2-1.4.5-3.6.6-5l.2-2.5.4 2.5c.2 1.4-.1 3.7-.7 5zm-6.4 18.2c-1.4 2.4-4.2 5.9-6.2 7.8-3.3 3.1-3.2 2.9 1-2.4 2.6-3.2 5.3-7 5.9-8.3.5-1.2 1.2-2.1 1.5-1.9.2.3-.8 2.4-2.2 4.8zM366.8 52.7c.7.3 1.6.2 1.9-.1.4-.3-.2-.6-1.3-.5-1.1 0-1.4.3-.6.6zM376.8 54.7c.7.3 1.6.2 1.9-.1.4-.3-.2-.6-1.3-.5-1.1 0-1.4.3-.6.6zM381.8 55.7c.7.3 1.6.2 1.9-.1.4-.3-.2-.6-1.3-.5-1.1 0-1.4.3-.6.6z"/><path d="M378.9 62.1c4.6 10.1 6.3 18.2 7 32.9l.6 13.5 1.4-8.8c2.5-16.3-1.6-34.4-9.3-41.7l-2.7-2.4 3 6.5zM385.8 56.7c.7.3 1.6.2 1.9-.1.4-.3-.2-.6-1.3-.5-1.1 0-1.4.3-.6.6zM381 57.3c0 .4 2.3 4.6 5 9.4 5.1 8.9 6.9 10 2.6 1.5-2.5-4.8-7.6-12.2-7.6-10.9zM394.5 59c2.7 1.2 4.3 1.2 2.5 0-.8-.5-2.2-.9-3-.9-1 0-.8.3.5.9zM327.8 60.3c-.9.8-1.3 1.8-.9 2.5.5.9 1.1.5 1.9-1.3 1.3-2.9 1.3-2.9-1-1.2z"/><path d="M405.9 64c4.1 2.2 9.9 6.3 12.8 9.2 5.6 5.5 6.5 8.2 1 3.1-3.3-3.1-6.3-5.2-13.2-9.3l-4-2.4 5 4.9c4.7 4.7 11.3 12.8 16.3 20.2 4.3 6.2 9.4 17.5 8.4 18.5-.7.7-1.8-.7-3.3-4.1-1.2-2.8-2.3-5-2.5-4.8-.2.2.3 3.8 1.1 8.1s1.5 11.2 1.5 15.3c0 6.7.2 7.4 1.5 6.3 1.4-1.2 1.5-.8.9 3.1-.8 5.4-1.4 6.2-1.5 2.3l-.1-2.9-1.3 3.5-1.3 3.5-.1-3c-.1-2.1-.4-2.6-1-1.6-1.3 2-2-4.8-.8-8.2 1.5-4.4.2-18.4-2.3-25-1.2-3.2-2.4-5.7-2.6-5.5-.2.2.3 5.3 1.1 11.4 1.9 14.9 2.3 28 .8 29.5-.9.9-1.1.6-.7-1.2.5-2.2.3-2.1-1.1.5-1.2 1.9-2 2.5-2.5 1.7-.4-.8-1.1-.2-2 1.8-1.4 3.5-4.9 7-3.7 3.7.6-1.6.5-1.7-.8-.6-1.4 1.2-1.6 1-1-1.6.6-2.6.4-2.5-1.8 1.1-1.3 2.2-2.9 3.9-3.5 3.8-.7-.2-1.2.1-1.2.6 0 .4-1.2 2-2.7 3.5-1.4 1.5-1.9 2.4-1.1 2.1.9-.4 3.4.3 5.6 1.4 4.3 2.2 10.5 7.1 9.9 7.8-.3.2.4 2.6 1.4 5.4 1.1 2.7 1.9 6.2 1.9 7.7-.1 2.6-.1 2.7-1.6.7l-1.6-2 .5 2c2.4 8.9 1.8 11.2-4.3 17.6-8.5 8.9-8.5 8.9-8.4 23.4.1 7.7.7 15.5 1.6 19.2.9 3.5 1.4 6.3 1.2 6.3-1.6 0-27.2-9.4-31.2-11.4l-5-2.6.5-7.3c.3-4 .1-9.6-.6-12.5-1.2-5.8-.8-7.8 2.1-9.3 1.5-.8 2.3-.8 2.8.1.6.9.9.9 1.2-.1.3-.8 1.4.5 2.6 3.1 1.8 3.8 2.1 2.6.5-1.8-.3-.6-.1-1.2.5-1.2s2.5 3.2 4.3 7c1.8 3.9 3.4 6.9 3.6 6.7.2-.2-.6-3.3-1.6-6.8-1.1-3.5-1.8-6.5-1.6-6.7.2-.2 1.3 1.3 2.4 3.5l2.1 3.8-.5-4c-1-7.5-2.7-15-5.1-23.1-2.4-7.7-2.4-8.5-1.2-16.5.7-4.6 1.1-9.7 1-11.4-.3-2.5-.7-2-2.8 4-2.5 7.1-4.4 10.3-4.4 7.3 0-.9.5-2.9 1.2-4.5.6-1.5 1.2-5.5 1.3-8.8.2-3.9-.1-5.3-.6-4-.4 1.1-.6-1.3-.2-5.5l.5-7.5-3.6 7.2c-1.9 4-5.3 9.6-7.4 12.5-5.6 7.5-10.2 16-11.7 21.8-1.8 6.8-5.4 12.6-11.3 18.3-4.7 4.4-5 5-4.2 7.9.5 1.7 1.6 3.8 2.4 4.7 3 3.5 5.7 10.5 6.3 16.4 1 11.8-3.8 28.2-10.8 36.1-4.3 4.9-20.3 13.6-25.6 14-1.6.2-3.9.8-5.1 1.5-2.7 1.5-10.1 3.6-15.3 4.5-2 .4-4.6 1.8-5.9 3.1-2.4 2.5-18.5 8.3-19.7 7.1-.3-.3.3-.8 1.3-1.2 5.8-1.9 17.4-7.9 17.8-9.1.4-.8.3-1.3-.1-1.1-5 2.6-10.3 4.5-17.8 6.4-11.9 3.1-12.5 3.1-8.9-.8l2.9-3.1-3.2 2.2c-4.6 3.1-10.8 5.1-16.7 5.2-5.7.1-12.2 2.1-11.9 3.7.2.6-.7 1.4-2 1.8-2.8.8-13.8 8.6-15.8 11.1-1.3 1.7.3.6 9.4-6.2 5.7-4.2 11.3-5.6 22-5.6 5.4.1 11.7-.3 14.1-.9 5.2-1.1 18.4.2 26.1 2.7 18.1 5.8 31.2 18.5 37.1 36 1.2 3.4 2.4 6 2.7 5.7.6-.6 5.7 6.6 5.7 8.1 0 .5-1.3-.5-2.8-2.4l-2.8-3.3-.1 9.6c0 5.9-.5 10.2-1.2 10.9-.8.8-1.1-.9-1.1-6.9 0-8.7-2.6-20.7-5.8-27.1-2.9-5.6-13.6-19.7-16.3-21.5-1.3-.8-4-2-5.9-2.6l-3.5-1.2 3.8 3.3c2 1.7 3.7 4.1 3.7 5.1 0 1.9-.1 1.9-2.2-.1-4.5-4-4.7-3.3-.7 2.6 2.6 3.6 3.8 6.4 3.4 7.2-.6.9-1.2.7-2.3-.7-1.4-1.8-1.4-1.8-.6.1 2.7 6.4-1.5 24.2-15 63.5-14.6 42.5-25.6 72.1-31.6 85.3-2.9 6.1-7.9 17-11.2 24-6.9 14.8-6.6 14-17 44.2-4.4 12.6-9.5 27.3-11.3 32.5-1.9 5.2-3.4 10.6-3.3 12 .1 2.3.1 2.3.5.2.8-4.1 2-2.3 2.7 4 .4 3.5.9 8.2 1.2 10.5l.6 4.3h41.9l-.8-4.7c-1.3-8-.7-15.1 2.6-30.4 4.9-22.8 18.1-66.9 19.9-66.9 1.3 0 5.2 6.9 5.3 9.2 0 1.3.3 1.7.6 1 .3-.8 2.3 1.2 4.9 5.2 2.5 3.6 4.7 6.6 5 6.6.3 0-.3-1.2-1.3-2.7-7.1-10.5-9.2-14.3-9.7-17.8l-.7-4 2.1 2.5c1.1 1.4 2.3 3.4 2.6 4.5.4 1 1.2 2.4 1.9 3.1 2.6 2.6 7.3 11.1 7.9 14.3.5 3.1.5 3.2-1.2 2-1.6-1.3-1.6-1.2.1.7 1 1.2 2.2 4.5 2.7 7.5 2.2 13.2 4.4 21.2 9.1 32.9 5 12.1 6.6 20.4 6.9 34.7v2.3h77l-.6-3.3c-.3-1.7-1.9-8.5-3.6-14.9-1.6-6.5-2.7-12.2-2.4-12.7.3-.4 2.7-1.4 5.2-2 6.8-1.7 10.1-3.7 16.7-10 6.5-6.1 11.5-13.1 14.5-20.1 1.1-2.5 2.9-6.7 4.1-9.3 2.2-4.7 2.2-4.9.4-7.5-.9-1.5-2.7-4.8-3.9-7.3-2.6-5.5-18.5-29.6-28.1-42.7-7.4-9.9-12.8-20-23.5-44.2-3.8-8.5-10-21.1-13.8-28-4.7-8.6-7.6-15.4-9.3-21.7-1.4-5-4.1-12.7-6.1-17.1-3.2-7-3.6-8.9-3.6-15.9 0-14.1 4.9-25.1 21.8-48.6 5.3-7.5 12.6-17.7 16-22.6 6.8-9.6 12.2-14.7 17.3-16.1 3.5-1 13.6 0 24.4 2.5 4.4 1.1 10 1.5 15.2 1.3 7.4-.3 8.4-.6 11.2-3.2 3.9-3.7 5.5-8.5 4.7-14.2-.3-2.4-.9-6.3-1.2-8.7-.5-3.8-.3-4.4 2.5-6.5 3.6-2.6 3.8-4.1 1.2-7.3-1.8-2.3-1.8-2.3 1.6-5.5 3.9-3.7 3.8-5-.3-11.1-3.5-5.3-3.2-7.8 1.6-10.5 4.5-2.6 6.1-5.3 4.9-8.6-.5-1.2-4.8-7.1-9.7-13-9.8-12-12.4-16.8-10.1-18.3 1.1-.7 1.1-.9 0-.9-.9 0-1.2-1.2-.9-4.5.2-2.5 0-4.5-.4-4.5-1.6 0-.7-4 1.2-5.3 1.7-1.2 2.1-2.8 2.4-10.2.3-4.8.7-8.9 1-9.3.3-.3.7 3.9.8 9.4l.2 9.9.3-8.8c.6-14.5-2.5-26.2-9.8-36.9-4.4-6.6-4.9-7.9-1.6-5.2 1.2 1-1.4-1.9-5.8-6.4-5.4-5.5-10.1-9.3-14.6-11.7-3.7-1.9-7.1-3.5-7.5-3.5-.5 0 2.5 1.8 6.5 4zm18.3 91.2c-1.7 1.7-2.4.4-1.6-2.8.7-2.8.7-2.8 1.7-.6.7 1.6.7 2.6-.1 3.4zm-5.5 7.3c.9 2.5-.4 2.9-1.7.6-.7-1.5-.7-2.1 0-2.1.6 0 1.3.7 1.7 1.5zm30.1 15.8c.2 1.1-.3 1.7-1.7 1.7-2.3 0-3.5-1.5-2.6-3.1 1-1.5 3.9-.6 4.3 1.4zM318 486.9c4 13.6 19.5 43 27.2 52 2.7 3.1 7.3 7.2 14.6 13.1 3.9 3.1 4 4 .2 4-7.2 0-25.9-9.3-33.7-16.9-6.2-5.8-7.5-8.3-12.4-23-4.3-12.6-4.6-15.5-2.5-20.5.7-1.8 1.7-5.3 2.1-7.7.8-5.2 1.5-7.9 2-7.9.2 0 1.3 3.1 2.5 6.9zm-38.5-1.9c2.3 4.5 1.9 7.2-.5 3.2-1.9-3-2.6-6.2-1.5-6.2.2 0 1.1 1.3 2 3zm-2.7 7.3l-.3 2.2-1.3-2.2c-.6-1.2-.9-2.9-.5-3.8.5-1.6.7-1.6 1.5-.1.5.9.8 2.7.6 3.9zm9.8 5.2c1.4 2.5 2.4 4.8 2.2 5.1-.6.5-5.8-7.1-5.8-8.6 0-1.9.9-1 3.6 3.5zM297.8 64.2c-2.3 3.5-5.5 10-6.2 12.8-.4 1.4 1.3-1.3 3.9-5.9 2.5-4.6 4.4-8.6 4.2-8.8-.3-.2-1.1.7-1.9 1.9z"/><path d="M392.1 67.2c8.1 15.3 10.9 30.5 9.1 49.6-.6 7-1.5 13.8-1.8 15.2-.4 1.4-.4 2.3-.1 1.9.4-.3 1.3-3 2.1-6 .8-2.9 1.5-4.5 1.5-3.4.1 1.1-.5 4.4-1.2 7.2-1.6 6.1.2 6.5 2.7.5 1.2-3 1.5-3.3 1.5-1.4.1 1.3-.4 3.2-1 4.3-.6 1.1-.8 2.5-.6 3.2.8 2.2 4.5-7.7 5.5-14.8.6-4 .7-8.7.2-11-.4-2.2-.8-3.3-.9-2.5-.2 1.4-2.5-6.3-7.1-23.8-2.1-7.8-6.4-16.7-10.5-21.7-2.2-2.7-2.2-2.4.6 2.7z"/><path d="M395.4 66.2c4 5.8 9.7 17 12 23.9 2.2 6.6 3.8 16.1 4.9 30.4.2 2.5.4 1.5.5-2.5.2-7.2-2.2-27.6-3.9-33-1.7-5.3-6.7-14.1-10.2-17.8-3.5-3.7-5.7-4.3-3.3-1zM373.5 73.4c-1 5 .1 26.2 1.4 30.1 1.1 3 1-2.9-.4-24l-.5-7 1.5 4.5c.8 2.4 1.9 7.7 2.4 11.8 1.1 8.7 2.1 10.5 2.1 3.6 0-5.6-2.3-16.3-4.4-20.2l-1.4-2.7-.7 3.9zM332.2 76c0 1.4.2 1.9.5 1.2.2-.6.2-1.8 0-2.5-.3-.6-.5-.1-.5 1.3zM410.5 80.5c2.9 8 5.7 22.4 6.1 31 .3 5.5.8 11.1 1.1 12.5.5 2.3.6 2.4 1.3.5 3.9-10.2-.2-33.9-7.6-43.8-1.4-1.9-1.6-1.9-.9-.2zM393.1 100.5c-.1 5.8-1 13.7-2.1 18.9-2.2 9.9-2 12.3.3 4.9 2.6-8 3.7-15 3.6-22.1-.2-11.4-1.7-12.9-1.8-1.7zM330.5 93.7c-.4 1-1.3 7.2-2.1 13.8-.8 6.6-2.6 17.1-4.2 23.2-2.9 11.9-2.7 13.3.8 4.4 3.3-8.5 5.8-20.6 6.5-32.4.7-10.4.5-12.6-1-9zM236.6 98.2c-5.7 6.7-15.3 25.3-14.4 28 .4 1.1 4-2 8.2-7.2l2.8-3.5-2.7 4.8c-2.9 5.2-2.9 7.5-.1 3.1 1-1.4 2-2.3 2.3-2 .3.3 2.7-2.5 5.4-6.3 2.6-3.8 7.4-9 10.6-11.7 8.8-7.3 9.4-8.3 2.1-3.2-1.6 1.1-3.2 1.7-3.7 1.4-.5-.3-1.5.2-2.2 1.1-1.2 1.4-1.2 1.6 0 .8.9-.5 1.2-.4.7.3-.4.6-1.2.9-1.9.6-.7-.2-3.2 2.1-5.6 5.1-2.4 3-4.6 5.5-4.8 5.5-.5 0 2.6-5.3 6.8-11.8 1.6-2.3 2.5-4.2 2.2-4.2-.4 0-2.9 2.4-5.6 5.2l-5 5.3 3.3-6.3c1.8-3.4 3.6-6.2 4-6.2.4 0 1-.7 1.4-1.5.9-2.4 0-1.8-3.8 2.7zM230.3 99.8c-2.2 2-4.6 4.6-5.1 5.7-1.4 2.8-10.3 28.8-9.9 29.1.1.1 2.6-5 5.5-11.5 2.9-6.4 7.2-15.2 9.6-19.4 2.4-4.2 4.3-7.7 4.3-7.7-.1 0-2.1 1.7-4.4 3.8zm-1 2.7c-.3.9-.8 1.4-1 1.1-.3-.3-.2-.9.2-1.5.9-1.6 1.5-1.3.8.4zM288.6 105.6c-2.1 3.5-4 6.4-4.1 6.4-.2 0 .5-2.3 1.6-5.2 1-2.8 1.7-5.4 1.4-5.6-.3-.3-1.9 1.1-3.7 3-3 3.2-5.4 4.4-11.2 5.5-6.4 1.2-18.3 11-22 18.2-2.6 5-1.3 4.7 2.4-.7 4.2-5.9 7.9-10.1 10.4-11.4 1.1-.6-.3 1.6-3 4.8-7.4 8.7-8.7 11.1-8 14.8.4 2.2.1 3.8-1 5.1-1.5 2-1.5 1.4.2-3 1.3-3.5-.3-1.2-3 4.5-1.5 3-2 4.6-1.1 3.6.8-1.1 1.5-2.4 1.5-3 0-.5.3-.6.7-.3.3.4 1.2.2 2-.5 2.4-2 2.6 0 .4 5.1-2.2 5.3-3 10.3-1 6.8.5-.9 1.9-1.7 3.1-1.7 1.5 0 1.9.5 1.5 2-.3 1.2-.1 1.7.5 1.4.6-.4.7.8.3 3-.6 3.1-.5 3.5.9 3 .9-.3 1.6-1.2 1.6-1.9s1.6-4.3 3.5-8.1c3.2-6.6 7.1-11.3 11.2-13.8 1.1-.6 3.4-2 5.2-3.1 7.9-4.7 12.5-8.1 12.9-9.5.4-1.1 0-1.1-2.1.3-4.1 2.7-3.2.6 1.9-4.3 6.2-6.1 8.7-11 7.8-15.7-.7-3.6-.7-3.7-1.7-1.3l-1 2.5-.4-2.3c-.3-1.2-.9-2-1.4-1.7-.5.4-.9-.1-.9-.9 0-3.3-1.7-2.1-5.4 4zM271 124.5c0 .2-1 1-2.2 1.6-2.1 1.1-2.2 1.1-.9-.4 1.3-1.6 3.1-2.3 3.1-1.2zm-1.4 13c-2.1 1.6-3.2 1.3-2.1-.4.3-.6 1.4-1.1 2.3-1.1 1.5.1 1.5.2-.2 1.5zm-3.6 4.4c-.5 1.1-1.5 2.3-2.2 2.7-.7.5-.8.2-.3-.7 2.1-3.7 4.4-5.5 2.5-2zM333.8 110.9c-1 6.3-1.6 11.6-1.4 11.8.7.7 3.8-18.2 3.4-20.8-.1-1.3-1.1 2.8-2 9zM280.9 102.7c-1.3 1.6-1.2 1.7.4.4 1.6-1.3 2.1-2.1 1.3-2.1-.2 0-1 .8-1.7 1.7zM302.6 129.1c-14.3 21.7-16 27.5-14.7 49.4.4 7.1.9 11.9.9 10.5 2.7-42 2.5-41.3 11.8-50.5 3.8-3.7 7.5-8.6 8.9-11.7 2.4-5.2 3.3-9.9 1.8-9.7-.5 0-4.4 5.4-8.7 12z"/><path d="M299.6 122.7c-1.3 3.1-5.2 8.1-11.3 14.5-11.6 12.1-14.5 17.7-15 29.3-.2 4.4.2 11.1 1 15l1.4 7 .7-6.2c1.6-13.9 4.5-28.5 6.6-32.7 1.1-2.5 5.4-7.9 9.5-12 7.4-7.6 10.1-12.6 9.3-17.4-.2-1.8-.7-1.3-2.2 2.5zM369.7 125.2c-2.4 10.3-6.4 16.2-18.5 26.9-9.3 8.3-16.2 16.5-16.2 19.2 0 .6 1.4-.8 3.1-2.9 1.6-2.2 8.8-9.5 15.8-16.4 10.8-10.6 13.1-13.3 14.8-18 1.9-5.1 4-16 3.1-16-.2 0-1.1 3.2-2.1 7.2zM311.5 128.2c-1.6 3.3-4.7 8.4-6.8 11.2-2.1 2.8-3.3 5.2-2.7 5.4 3.2 1.1 13.5-9.3 15.4-15.4.6-2.1-1.1-7.4-2.3-7.4-.3.1-1.9 2.8-3.6 6.2zM392.7 131.8c-1.5 4.8-3.1 10.7-3.6 13.1-.5 2.4-1.4 4.7-1.9 5-.5.3-1.1 1.8-1.4 3.3-.5 2.5-.3 2.6 1.5 1.6 1.4-.7 1.6-1.2.7-1.8-.9-.6-.9-1.3.3-3.1.8-1.3 2-4.7 2.7-7.4.7-2.8 2.1-8.1 3.2-11.8 2.9-10.1 1.6-9.2-1.5 1.1zM331.1 125.6c0 1.1.3 1.4.6.6.3-.7.2-1.6-.1-1.9-.3-.4-.6.2-.5 1.3zM287.9 130.9c-2.5 2-6.7 5.1-9.3 6.9-2.7 1.8-4.5 3.6-4.2 3.9.8.8 13.3-7.7 16.6-11.2 3.6-3.8 2-3.7-3.1.4zM439.5 134c.3.5.8 1 1.1 1 .2 0 .4-.5.4-1 0-.6-.5-1-1.1-1-.5 0-.7.4-.4 1zM220.7 137c-4.8 5.7-10 23.8-7.9 27.7.7 1.2.8 6.1.4 13.6-.4 6.4-.6 11.7-.4 11.7.8 0 7.7-15.9 8.9-20.4l1.3-5.1-.6 5.5c-.3 3-1.9 8.8-3.5 12.9s-2.8 8.2-2.7 9c.5 2.5 8.9-9.2 10.9-15.2 1-2.9 1.8-4.2 1.9-3 0 1.2-1.3 5.9-2.9 10.5-1.7 4.5-2.8 8.4-2.6 8.6.6.6 6.5-8.6 9-14 2.9-6.1 3.3-13.4.9-16.4-1.1-1.3-1.7-1.5-2-.6-.8 1.7-2.4.5-2.4-1.7 0-1-.6-2.4-1.4-3-1.7-1.4-2.5-.5-3.7 4.3-.6 2.1-.7.5-.6-5.2.3-9.5-1.1-10.6-5-3.7-2 3.6-2.3 3.7-2.3 1.5 0-3.5 4.5-15.8 6.6-18.1.9-1 1.5-1.9 1.1-1.9-.3 0-1.7 1.3-3 3zM379.1 138.6c0 1.1.3 1.4.6.6.3-.7.2-1.6-.1-1.9-.3-.4-.6.2-.5 1.3zM399.1 139.6c0 1.1.3 1.4.6.6.3-.7.2-1.6-.1-1.9-.3-.4-.6.2-.5 1.3zM363.8 148.2c-2.9 3.3-8.4 9.6-12.1 13.9-3.7 4.3-6 7.6-5 7.2 1.4-.6 1.3-.1-.5 2.5-5.4 7.5-12.6 14-21 19.2-5 3-8.9 5.6-8.7 5.8.5.5 8.1-3.5 14.5-7.6 5.8-3.7 5.7-3.5-2.5 6.1-.9 1-1.9 1.6-2.3 1.3-.4-.2-3.2 1.5-6.2 3.8-7.1 5.4-12 14.6-12.6 23.9l-.5 6.2 2.6-8.2c2.9-9.8 5.8-16.2 8.6-19.2 3-3.2 3-2.6-.1 3.2-3.3 6-4.9 12.1-5.2 20.3-.2 3.8.2 5.9 1 6.2 1.7.5 1.5 9.7-.2 15.6-.8 2.7-2.7 6.7-4.2 8.9l-2.7 4.2 2.8-2.5c4.7-4.2 7.5-11.5 7.5-19.5 0-7.6.7-11.5 2.1-11.5 1.5 0 1 13.1-.7 19.5-.8 3.3-2.6 8-4 10.5l-2.5 4.5 3.6-3.5c8.5-8.2 9.7-12.3 9.9-34 .1-12.5.5-18.1 1.4-19.5 1.1-1.7 1.2-1.4.7 2.8-.6 4.4-.5 4.8 1.2 4.5 1.4-.2 1.9-1.6 2.4-5.9.8-7.3 4.1-13.8 8.7-16.9 2-1.3 4-2.3 4.4-2.2 1.1.3 6-6 7.9-10.3 1-2.2 1.9-5.8 1.9-8 .1-4.8 1.7-7.9 9.7-19 3.4-4.7 6-8.5 5.8-8.5-.2 0-2.8 2.8-5.7 6.2zm-34.6 53c-.7.7-1.2.8-1.2.2 0-.6.3-1.4.7-1.7.3-.4.9-.5 1.2-.2.2.3-.1 1.1-.7 1.7zM400.6 145.5c-.9 2.6-.7 3.2.5 1.2.6-1 .9-2.1.6-2.3-.2-.3-.7.2-1.1 1.1zM237 169.4c0 3.9-3.5 15.6-5.8 19.1-.4.6.2.2 1.2-1 5.1-5.5 9.2-21.1 5.9-22.2-.9-.3-1.3.9-1.3 4.1zM198.9 171.7c-3.3 5.1-15.4 15-19.2 15.8-8.3 1.8-19.3 10.9-25 20.6-2.1 3.6-3.1 7.3-4.3 16.4-1.4 11.3-1.5 18.7 0 9.5.5-3.3.9-4.1 1.6-3 .7 1.1 1 0 1-3.5 0-2.8.5-6.8 1.1-9 1.4-5 10.5-17.1 18.3-24.1 5.4-4.9 8.7-6.9 7.1-4.4-1 1.5 2.2 1.2 5.8-.6 8.1-4.2 17.7-14.8 17.7-19.6 0-2.8-1.4-2.1-4.1 1.9zM292.2 170.5c0 1.6.2 2.2.5 1.2.2-.9.2-2.3 0-3-.3-.6-.5.1-.5 1.8zM245.2 171.5c0 1.6.2 2.2.5 1.2.2-.9.2-2.3 0-3-.3-.6-.5.1-.5 1.8zM266.7 172.6c-.4.4-.7 2.4-.7 4.5 0 3.8-1.3 5.8-2.5 3.9-1.2-2-2.6-1-4.5 3.2-1 2.4-2.9 5.5-4.2 6.9-3.9 4.5-18.6 15.7-24 18.5-6.1 3.1-13.8 10.6-16.7 16.2-1.5 2.9-2.1 5.9-2.1 10.4.1 6.3.1 6.3 1.3 2.8 1.5-4.1 7.8-15 11.4-19.8 1.3-1.8 5.4-5.2 9.1-7.7 3.7-2.4 10.4-8.2 15-12.8 8.2-8.4 9.7-8.9 6.5-2.2-.9 1.9-1.4 3.7-1.1 4.1 1 .9 5.5-2.5 7.8-5.9l2.1-3.2-.6 5.2c-.8 6 0 6.5 3.8 2.8 4-4.1 6-16.7 3.8-24.5-.7-2.5-3-3.7-4.4-2.4zM247.1 176.6c0 1.1.3 1.4.6.6.3-.7.2-1.6-.1-1.9-.3-.4-.6.2-.5 1.3z"/><path d="M196.5 182.6c-2.7 3.1-7.6 7.4-10.9 9.5-6.6 4.2-6.9 5.1-.6 1.9 5.3-2.7 10.5-7.4 14.1-12.7 1.7-2.3 2.8-4.3 2.6-4.3-.2 0-2.5 2.5-5.2 5.6zM203.1 180.3c-.1 2.5-7.7 10.5-13.8 14.4-2.9 1.8-5.3 3.6-5.3 3.9 0 1.2 8.6-4.1 12.6-7.8 2.4-2.2 4.4-3.6 4.4-3 0 .6-3 3.8-6.7 7.1-3.7 3.4-6.3 6.1-5.8 6.1 2.8-.1 15-13.4 13.9-15.1-.3-.5 0-1.8.6-2.9.6-1.2.9-2.6.6-3.3-.2-.7-.5-.4-.5.6zM282.1 195c-.1 14.2-2.5 29.5-5.7 37.4-.5 1.4-.4 1.7.4 1.2 1.7-1 1.5.8-1.2 10.4-3.3 11.8-4 13.4-8.4 18.2-6.4 7.2-7.2 8.6-3 5.5 2-1.5 4.3-2.7 5.1-2.7 2.7 0 11.3-8.8 14.7-15.1 3.9-7.3 5.2-17.1 2.7-20.3-1.3-1.8-1.5-1.5-2.2 4.5-.3 3.5-1.1 8.2-1.7 10.4-.9 3.8-5.6 13-6.3 12.3-.2-.2.8-3.7 2.2-7.8 1.8-5.3 2.3-8.7 1.9-11.5-.3-2.6.3-7.4 1.7-13.2 1.3-5.1 2-9 1.7-8.8-.4.2-.5-4.4-.2-10.3.2-5.9-.1-13.2-.6-16.2-.9-5.1-1-4.7-1.1 6zM302.3 191.3c-6 9-6.6 12.3-5.6 31.2l.7 15 1.7-8.5c1-4.7 1.9-11.7 1.9-15.5.1-7.2 1.1-14.1 2.9-21 .5-2.2.9-4 .8-4.2-.1-.1-1.2 1.3-2.4 3zM337.9 203.4c1 1.2 1.1 2 .4 2.4-1.8 1.2-1.8 3.5.2 7.7 1.5 3.2 1.9 6.4 2 16.5 0 6.9-.4 13.8-.8 15.5-1.2 4.1.2 2.5 1.8-2.2.8-2.1 1.8-3.7 2.3-3.6 1.6.4 2.2-8.6 1.3-19.9-.8-11.2-2.1-14.7-6.3-16.9-2.1-1.1-2.2-1.1-.9.5zM163.7 207c-6.5 7.6-8.3 12.4-10.6 28.5-1.2 8.2-2.4 15.9-2.7 17-.8 3.2 6.4-9.5 8.5-15.1 1.1-2.8 2.4-9.2 3-14.3.6-5.9 1.9-11.2 3.5-14.7 1.4-3 2.3-5.4 2.1-5.4-.2 0-1.9 1.8-3.8 4zM203.8 207.3c-2 1.9-4 4.7-4.3 6.3-.4 1.6-.9 3.5-1.1 4.3-.6 1.9 1.5 8.1 2.7 8.1 1.1 0 2.3-2.9 5-12 1.1-3.6 2.3-7.3 2.6-8.3.8-2.6-.9-2.1-4.9 1.6zM259.7 205.5c-6.7 2.5-15.6 9.6-18.3 14.7-2.3 4.5-1.7 4.1 4.9-2.7 4.2-4.4 8.4-7.6 13.2-9.9 7.1-3.5 7.2-4.6.2-2.1z"/><path d="M274 209.2c0 1-.4 1.8-.9 1.8s-1.2 1.6-1.5 3.5c-.9 4.4-13.6 23.7-17.6 26.5-3.6 2.6-4 1.6-.5-1.2 1.4-1.1 2.5-2.6 2.5-3.4 0-1.5-2.4-1.2-7.9.8-1.3.5-2.7.6-3 .2-.9-.9 4-4.5 5.2-3.7.6.3.7.1.3-.5-1.5-2.5-4.9-1-10.6 4.4-3.2 3-7.1 7.3-8.6 9.5s-2.9 3.7-3.1 3.5c-1.1-1.1 2.2-8.1 7.5-15.8l5.6-8.3-5.3 4.4c-6.6 5.6-12.1 13.7-12.8 19-.5 3.7-.4 4.1 1.6 4.1 2.1 0 2.1.1.6 3-.8 1.6-2.2 6-3.1 9.7-2.6 11.4-6.6 16.7-16.4 22.3-3 1.7-4.4 2.8-3 2.4 5.2-1.3 9.6-4 13.8-8.1 2.3-2.4 4.5-4.3 4.7-4.3 1.7 0-2.3 7.2-8.7 15.5l-2.3 3 3.2-2.5c3.8-3 9.2-10 12.1-15.5 4.5-8.8 9.7-14 18.4-18.2 10.2-4.9 18.5-11.4 19.5-15.1.3-1.5 2.3-5.2 4.4-8.2 6.4-9.4 9.9-24.3 6.9-29-.8-1.3-1-1.2-1 .2zm-14.5 40.4c-4.4 3.6-14.5 9.7-15.1 9.1-.3-.3 2.8-2.6 7-5.1 4.1-2.6 8-5.4 8.7-6.2.6-.8 1.5-1.2 1.8-.8.3.3-.7 1.7-2.4 3zM190.5 212.7c-1.3 5-2.2 13.3-1.4 13.3 1.1 0 1.6-2.1 2.4-9.3.8-6.9.3-8.8-1-4zM212.5 213.2c-4.2 3.6-7.2 9-7.7 13.7-.4 4.4 1.2 4.9 5.1 1.6 2.4-2.1 3.1-3.5 3.1-6.2 0-3.8 1.2-6.7 4.3-10.1 3.3-3.6-.5-2.9-4.8 1zM332.4 211.2c-.4.6-.6 7.6-.5 15.7.1 12.1-.2 15.5-1.8 20.1-1.1 3-1.8 5.6-1.7 5.7.1.2 1.5-1.8 3.1-4.2 1.5-2.5 3-4.3 3.2-4.1 1 .9-4 10.3-7.9 15.1l-4.1 5 4.7-4.5c7.3-7 9.8-13.3 10.4-26.3.3-6.6 0-13-.8-16.7-1.2-5.6-3.2-8.1-4.6-5.8zM233.9 217.7c-1.3 1.6-1.2 1.7.4.4.9-.7 1.7-1.5 1.7-1.7 0-.8-.8-.3-2.1 1.3zM226.8 224.7c-4.4 5.8-9.3 15.6-10.3 20.3-.4 2.1 1.5-.9 4.8-7.5 3-6.1 6.6-12.5 8.1-14.3 1.5-1.7 2.4-3.2 1.9-3.2s-2.5 2.1-4.5 4.7zM167.6 224.5c-.4 2.2-1.2 6.3-1.7 9.1-1.3 6.5-6.7 17.9-11 23-6 7.1-6.3 8-.6 2.2 7-7.3 12.3-17.7 13.8-27.5 1.1-7.8.7-13.5-.5-6.8zM289.8 233.2c-.6 9.6-4.2 20-9.2 26.3l-3.1 4 3.3-2.4c7.1-5 12.6-17.7 12-27.8-.6-9.9-2.4-9.9-3-.1z"/><path d="M328.1 232.6c0 1.1.3 1.4.6.6.3-.7.2-1.6-.1-1.9-.3-.4-.6.2-.5 1.3zM200.1 233.3c-.1 2.4-4.4 10.6-7.1 13.7-2.3 2.8-2.3 2.6.4-4.2 1.1-2.8 1.5-5.5 1.1-6.5-.6-1.4-1-1-2 2.2l-1.3 4 .2-4.2c0-2.3-.3-4.3-.9-4.4-.5-.1-3 3.5-5.4 8-2.4 4.5-4.6 8-4.8 7.8-.2-.2.4-2.3 1.2-4.7.8-2.3 1.5-5.2 1.4-6.4 0-1.9-.1-1.9-1.1.4-4.7 11-9.1 19.4-11.4 21.5l-2.7 2.5h2.5c4.9 0 16.3-6.7 22.1-13 5.4-5.8 9.5-14.4 8.4-17.3-.3-.7-.6-.5-.6.6z"/><path d="M201.2 241.8c-1.4 4.5-7.8 14.7-11.3 17.9-1.4 1.3-6.1 4.3-10.4 6.8-7.6 4.3-7.8 4.5-4.4 4.5 4 0 13.4-5.2 18.7-10.3 1.7-1.7 3.2-2.6 3.2-2.1 0 1.5-5.5 6.4-13.2 11.8-3.8 2.6-6.8 4.9-6.8 5.2 0 .9 9.7-4.6 15-8.5 6.5-4.9 11-11.2 10.9-15.5 0-1.7.3-4.7.7-6.8.3-2 .2-4.4-.3-5.3-.8-1.3-1.2-.9-2.1 2.3zM302.8 243.5c-.4 1.6-.9 3.9-1.2 5-.4 1.1.1.5.9-1.4.9-1.8 1.4-4.1 1.3-5-.2-.9-.7-.3-1 1.4zM343.1 242.6c0 1.1.3 1.4.6.6.3-.7.2-1.6-.1-1.9-.3-.4-.6.2-.5 1.3zM136.5 248.4c-4.4 2.5-7 4.9-9.5 8.8-3.1 4.8-3.5 6.1-3.8 13.6-.3 6.7-.2 8.1 1 7.7.9-.4 2.1.9 3.5 3.7 1.6 3.2 2.2 3.7 2.2 2.1.1-1.6.6-2 2.1-1.6 1.5.4 1.8 1.1 1.3 3.4-.6 3.3-.4 3.4 3.2 1.7 1.4-.6 2.8-2.3 3.1-3.7.4-1.4 1.4-6 2.5-10.1 1-4.1 1.6-7.6 1.4-7.8-.7-.7-2.7 1-4.6 4.2-1 1.7-1.9 2.4-2 1.6-.6-13.4.4-18.3 4.1-19.5 2.6-.8 2.6-3.2-.1-3-3.3.2-8.6 5.1-11.9 10.8-3.3 5.7-4.1 4.8-1.1-1.1 2.4-4.6 7.3-9.3 12.6-12 2.2-1.2 3.6-2.1 3-2.1-.5-.1-3.7 1.5-7 3.3zM337.1 251.7c-1 2.6-1 2.7.4.9.8-1.1 1.5-2.3 1.5-2.8 0-1.5-.7-.8-1.9 1.9zM217 254.1c-2.1 4.1-9 22.9-8.4 22.9.8 0 4.3-8 6.4-14.5 1.2-3.9 2.9-8.2 3.7-9.8.7-1.5 1.1-2.7.8-2.7-.2 0-1.4 1.8-2.5 4.1zM205.1 256c-.2 3.2-6 13.7-9.2 16.7-1.9 1.8-7.2 5-11.9 7.2-9.1 4.3-9.5 5.4-.7 2.1 10.5-3.9 18.9-11.8 21.6-20.2.7-2.1 1-4.6.8-5.5-.3-1.3-.5-1.4-.6-.3zM333.1 257.2c-1.4 2.3-1.4 2.3.8.4 2.2-2 2.5-2.6 1.3-2.6-.4 0-1.3 1-2.1 2.2zM293.9 259.7l-2.4 2.8 2.8-2.4c2.5-2.3 3.2-3.1 2.4-3.1-.2 0-1.4 1.2-2.8 2.7zM251.9 259.7c-1.3 1.6-1.2 1.7.4.4.9-.7 1.7-1.5 1.7-1.7 0-.8-.8-.3-2.1 1.3zM243.5 267.2l-6 6.3 6.3-6c3.4-3.3 6.2-6.1 6.2-6.2 0-.8-1 .1-6.5 5.9zM157.4 280.4c-5.2 5.3-8.5 12.6-8.3 18 0 1.2 1.2-1.4 2.5-5.8 2.1-6.4 3.4-8.7 7.4-12.7 2.7-2.7 4.6-4.9 4.3-4.9-.4 0-3 2.4-5.9 5.4zM242 277.4c-10.5 4.3-21.2 10.5-18.2 10.6 1.7 0 22.9-10.7 23.7-12 .3-.5.5-1 .3-.9-.2 0-2.8 1.1-5.8 2.3z"/><path d="M151.2 279c-12.2 8.8-17 31-8.7 40 1.3 1.4 3.3 4.1 4.5 6l2.1 3.5-.6-4.5c-.3-2.5-.7-11.3-.8-19.5-.2-16.9.8-20.8 6.6-25.7 4.3-3.7 2-3.5-3.1.2zM167.4 291.9c-3.7 2.2-7.8 7-10.7 12.5-1.9 3.6-2.2 5.8-2.3 17.6-.2 14.6-1.7 20.7-7.1 28.7l-2.5 3.8 2.9-2.8c3.6-3.4 6.8-9.5 8.6-16.7.9-3.3 2.2-5.9 3.5-6.8 2-1.3 2.2-1.3 2.2.4-.1 7.1-7.5 30.9-11.6 37.1-2.6 4 0 2.3 3.9-2.5 5.1-6.4 7.4-13.2 9.8-28.6 2.4-16.1 3.2-18.5 7.6-24.4l3.6-4.7-3.3 3c-1.7 1.6-4.5 5.5-6.1 8.5-2.7 5-2.9 5.2-2.3 2 1.2-6.9 4-11.4 9.5-15.6 3-2.3 6.4-4.7 7.7-5.3 1.2-.6 2.2-1.6 2.2-2.1 0-1.5-5.1-1.2-8.2.4-2.5 1.3-2.8 1.3-2.8 0 0-1.2-.4-1.2-2-.4-2.4 1.3-2.5.7-.4-2.6 2.2-3.3 1.5-3.7-2.2-1.5zM239.8 291.7c.6.2 1.8.2 2.5 0 .6-.3.1-.5-1.3-.5-1.4 0-1.9.2-1.2.5zM125.2 296.5c0 1.6.2 2.2.5 1.2.2-.9.2-2.3 0-3-.3-.6-.5.1-.5 1.8zM217 303.5c-2.4 2.5-4.2 4.5-3.9 4.5.3 0 2.5-2 4.9-4.5 2.4-2.5 4.2-4.5 3.9-4.5-.3 0-2.5 2-4.9 4.5zM124.1 300.7c-.1.6-.4 2-.7 3-.5 1.7-.5 1.7.6 0 .6-1 .9-2.3.6-3-.3-.9-.5-.9-.5 0zM222.7 305c-1.8 1.8-1.8 1.8 1.7.6 4.6-1.6 5.6-2.6 2.5-2.5-1.3 0-3.2.9-4.2 1.9zM194 308.6c-8 5.6-12.5 9.9-15.2 14.2-1.1 1.8-2.2 3.1-2.5 2.9-.6-.7 4.5-12.9 6.7-16 2.9-3.8.8-3.4-2.6.5-5.5 6.6-8.7 18.3-6.4 23.9l1.2 2.8 2.2-4.2c3.8-7.5 10.4-15.5 17.6-21.2 6.3-5 8.4-7.6 6.3-7.5-.5.1-3.7 2.1-7.3 4.6zM214.1 311.9c-2.7 2.7-6.4 8-8.2 11.7-1.9 3.7-4.8 7.8-6.7 9.2-1.8 1.4-5.4 5.4-7.9 8.9s-4.7 6.2-5 6c-.7-.8 2.6-7.8 5.4-11.6 2.4-3.3 2.3-3.3-2.1.9-10.3 9.8-14.5 26-13 50l.7 11.5 1.2-5 1.2-5 1.4 3c1.7 3.9 1.8 21.3.1 22.4-3.2 2-2.5 32 1 40.9.5 1.5 1 4.7 1 7.2v4.5l.9-3.5c3.2-12.9 11.9-51.2 12.3-54.5 1-6.7-.1-2.7-3.9 14-4.8 21.3-5 21.7-6 11.5-1.2-12-1.1-13.5 1.9-22.9 1.7-5.3 2.8-12 3.3-18.3.4-6.7.9-9.5 1.5-8.4 1.4 2.5 3 1.9 1.7-.6-1.9-3.6-3.9-12-3.9-16.7 0-7.6 11.6-41 12-34.6.1 1.2.6.7 1.2-1.5.5-1.9 1.5-4.1 2.1-4.9.6-.7 1.2-1.9 1.3-2.5.3-2.3 5.2-9.3 9-13 2-2 3.4-3.6 3-3.6-.4 0-2.9 2.2-5.5 4.9zM119.4 311.2l-1.9 2.3 2.3-1.9c1.2-1.1 2.2-2.1 2.2-2.3 0-.8-.8-.2-2.6 1.9zM110.8 312.7c-3.9 4.2-5 7-5 12.4.1 8.8 1.8 8.9 3.1.3.8-5 2.2-9.3 3.7-11.7 2.8-4.3 1.9-4.9-1.8-1zM128.7 315.5c-1.9 4-2.7 7.1-2.7 11.1 0 7.6 4 14.8 5.3 9.6.3-.9.5.7.6 3.7.1 4.1.4 5.2 1.5 4.8.7-.3 1.8-.1 2.4.5.8.8 1.8.6 3.6-.6 7-4.5 7.8-17 1.3-18-.9-.1-2.5-1-3.6-2-1.8-1.7-1.9-1.6-2.6 1.3-1.2 5.5-2 4.1-1.7-2.8.2-3.7 0-8.2-.5-10l-.8-3.2-2.8 5.6zM115.6 316.3c-2.9 4.3-4.6 11-4.5 17.1.2 10.6 1.7 12 1.7 1.6.1-9.2 1.7-16.4 4.3-19.7.6-.7.9-1.3.5-1.3-.3 0-1.2 1-2 2.3z"/><path d="M190.5 331.9c-5.5 2.5-8.8 6.4-12.6 14.5-2.7 5.7-3.3 8.4-3.5 15-.4 8.9-.1 8.4 3.5-6.4 3.7-14.8 8.7-22.2 15.9-23.3 1.2-.2 2.5-.6 2.8-1 1.4-1.3-2.1-.6-6.1 1.2zM168.1 334.2c-.2 5.5-7 22.6-12.1 30.8l-2.2 3.5 2.6-3c5.7-6.4 13.2-25.5 12.3-31.2l-.4-2.8-.2 2.7zM102.8 341.8c-.7 2.6.5 7.1 1.5 5.6.3-.5.2-2.5-.2-4.4-.6-3.2-.8-3.3-1.3-1.2zM120 346.3c0 .4 1.4 4.4 3.1 8.9 2.4 6.4 3.1 10 3.2 15.8 0 6 .2 6.9.9 4.5 1.4-4.8.1-13.6-3.3-21.6-3.1-7.2-3.9-8.9-3.9-7.6z"/><path d="M127.5 348.2c3.9 13 4.5 25.9 1.6 34.3-1.1 3-1.6 5.5-1.2 5.5 1.6 0 7.5-6.8 9.3-10.7 2.5-5.7 2.6-17.8.2-22.8-1.5-3.3-7.5-8.5-9.7-8.5-.5 0-.6 1-.2 2.2zM104.6 352.5c1.1 4.8 2.5 7.6 1.8 3.5-.4-1.9-1-4.2-1.5-5-.6-1-.7-.5-.3 1.5zM108.6 354.7c1 1.6 2.6 4.4 3.6 6.3 1 1.9 1.8 2.8 1.8 2 0-1.4-5.8-11-6.7-11-.3 0 .3 1.2 1.3 2.7zM106.2 366c0 1.9.2 2.7.5 1.7.2-.9.2-2.5 0-3.5-.3-.9-.5-.1-.5 1.8zM114.7 378c.3 15 .3 15.3 1.3 11.5 1.3-5 1.1-19.1-.2-21.7-1.1-2-1.3-.4-1.1 10.2zM158.1 378.5c-.1 1.1-1.3 4.7-2.7 8-1.4 3.3-2.6 6.9-2.8 8-.3 2.3-3 7.8-5.7 11.7-2.6 3.6-2.5 5.2.1 3.8 1.6-.9 2-.8 2 .5 0 .8.7 1.5 1.5 1.5s1.5-.3 1.5-.8c0-.4.9-1.3 2-2 1.8-1.1 1.6-.4-1 4.5-3.2 6.1-3 5.8 3.5-4.1 5.9-8.9 8.8-15.4 9.3-20.6.4-3.9 0-5.1-2.2-7.6l-2.5-2.9-.1 2.5c-.1 2.2-.3 2.1-1.5-1-.9-2.4-1.4-2.9-1.4-1.5zM120.1 384.6c-.6 2.1-.9 4-.6 4.2.2.2.8-1.3 1.4-3.4.6-2.1.9-4 .6-4.2-.2-.2-.8 1.3-1.4 3.4z"/><path d="M149.9 390c-1.9 3.3-5.3 9-7.6 12.6-3.7 5.7-6.3 13.3-6.3 18.1 0 3.9-2.3-.9-3.1-6.4l-.8-5.8.3 7c.2 3.8.7 7.9 1.1 9 .7 1.8.6 1.9-.9.4-.9-.8-2.8-4.2-4.1-7.5-1.4-3.2-2.5-5-2.5-3.9 0 2.6 4.4 12.1 7.6 16.2 1.3 1.7 2.9 5.4 3.5 8.2 1.3 6 2.4 6.9 1.4 1.1-.4-2.6-.3-4 .4-4 .6 0 1.2 1.5 1.2 3.2l.1 3.3.8-3c.4-1.7.8-2.2.9-1.3.1 1.1.6 1.5 1.6 1.2.9-.4 1.5 0 1.5 1 0 .9-.3 1.6-.7 1.6-1.2 0-.5 10.7.8 14.9 1.3 4.1 5.7 13.1 6.4 13.1.2 0-.7-2.4-2-5.3-1.4-2.8-2.5-6.1-2.4-7.2 0-1.4.5-.9 1.4 1.5 1.3 3.3 1.4 2.9.8-5-.4-4.7-.7-10.3-.6-12.5 0-3-.2-3.5-.8-2-1.4 3.6-1-.8.6-6.1.8-2.7 3.1-7 5.2-9.4 3.5-4.3 3.5-4.4.4-1.5-1.8 1.6-4.6 5.9-6.4 9.5l-3.2 6.5-.3-5.3c-.2-4.3.3-6.7 2.8-12 2.2-4.8 2.5-6 1-4.2-2.5 3.2-6 12.3-6 15.7v2.7l-2.4-3.3c-2.1-2.8-2.3-4-1.9-9.4.5-7.1 3.3-17.9 4.1-15.8.2.7 2.2-2.3 4.3-6.8 2.1-4.5 4.8-9.5 6-11.2 1.1-1.7 1.9-3.2 1.7-3.5-.3-.2-2 2.3-3.9 5.6zm-3.2 62.7c-.3 1-.5.4-.5-1.2 0-1.7.2-2.4.5-1.8.2.7.2 2.1 0 3zM117 392.9c0 .7-.6 1.1-1.4.8-1.5-.6-3.2 3.6-2.1 5.3.3.4 0 1-.6 1.2-.6.2-1.3 2.2-1.5 4.3l-.3 4 1.5-4c.9-2.2 1.7-5.1 1.7-6.5.1-1.4.7-2.4 1.2-2.3 1.2.2 2.9-2.6 2.1-3.4-.3-.4-.6-.1-.6.6zM181.2 402c0 1.9.2 2.7.5 1.7.2-.9.2-2.5 0-3.5-.3-.9-.5-.1-.5 1.8zM197.1 401.6c0 1.1.3 1.4.6.6.3-.7.2-1.6-.1-1.9-.3-.4-.6.2-.5 1.3zM125.3 407c0 2.5.2 3.5.4 2.2.2-1.2.2-3.2 0-4.5-.2-1.2-.4-.2-.4 2.3zM116.1 408c-.7 2.5-1.7 5.3-2.2 6.2-1.1 2.3-1.1 3.1 0 2.4.5-.4 1.2 0 1.4.6.3.7.6-.4.6-2.5.1-2.1.6-4.7 1.2-5.8.5-1.1.9-2.8.6-3.7-.2-1-.9.2-1.6 2.8zM110.2 414.2c-.2 5.9 3.6 19.8 6.3 23.5 1.3 1.6 1.3 1.5.6-1.3-.5-1.7-1.4-4.1-2-5.2-.6-1.1-1.1-4.2-1.2-6.9 0-3.5-.3-4.3-.9-2.8-.7 1.9-.8 1.8-1.4-.5-.3-1.4-.7-4.8-.9-7.5l-.3-5-.2 5.7zM173.8 421.4c-5.1 6.4-7.7 15.1-7.8 26.1l-.1 4-2.9-3.5c-3.9-4.7-3.8-3.5.5 3.6 1.9 3.2 3.5 6.4 3.5 7.1 0 .8.9 3.1 1.9 5.1 1.1 2.1 2.2 5.6 2.6 7.7.7 4 .7 4-3.4-2.5-7.6-12-10.3-18-11.1-24.9-.7-6.6-.7-6.6-.9-1.5-.2 7 1.9 13.1 8 23.7 3 5.1 6.3 11.9 7.5 15.1l2.1 5.9 1.1-8.4c.7-6 .7-10-.1-13.9-.6-3-1.1-12.3-1.1-20.5-.1-14.2 0-15.3 2.5-20.2 3-6.1 1.7-7.9-2.3-2.9zm-1.9 32.9c.1.5-.3.5-.9.2-.5-.3-1-1.6-.9-2.8 0-2.1.1-2.1.9-.2.5 1.1.9 2.4.9 2.8zm1.4 12.1c.4 2.6.3 3.6-.4 2.9-.5-.5-1.2-3.4-1.4-6.4-.5-5.9.7-3.6 1.8 3.5z"/><path d="M140.2 428.5c0 1.6.2 2.2.5 1.2.2-.9.2-2.3 0-3-.3-.6-.5.1-.5 1.8zM151.6 431.9c-.4.5-.2 1.2.3 1.5.5.4 1.2.2 1.5-.3.4-.5.2-1.2-.3-1.5-.5-.4-1.2-.2-1.5.3zM175.2 440.5c-.1 7 .3 10.9 1.4 13 1.2 2.5 1.3 2.6.8.5-.3-1.4-.9-7.2-1.3-13l-.8-10.5-.1 10zM152.1 449.1c-.1 5.7 4.3 14.9 9.5 19.9l3.6 3.5-3.5-5.5c-5.1-8.2-7.7-13.7-8.7-18.3l-.8-4.2-.1 4.6zM181.6 470.6c-.4 2-.5 3.8-.3 4 .3.3.8-1.1 1.1-3.2.4-2 .5-3.8.3-4-.3-.3-.8 1.1-1.1 3.2zM177.6 489.6c-1.5 7.5-2.6 13.8-2.3 14 .2.2 1.6-5.7 3.1-13.2 1.5-7.5 2.6-13.8 2.3-14-.2-.2-1.6 5.7-3.1 13.2zM173.6 508.6c-.4 2-.5 3.8-.3 4 .3.3.8-1.1 1.1-3.2.4-2 .5-3.8.3-4-.3-.3-.8 1.1-1.1 3.2zM172.1 515.6c0 1.1.3 1.4.6.6.3-.7.2-1.6-.1-1.9-.3-.4-.6.2-.5 1.3zM170.6 520.6c-.4 1.4-.5 2.8-.3 3.1.3.2.8-.8 1.1-2.3.4-1.4.5-2.8.3-3.1-.3-.2-.8.8-1.1 2.3zM167.1 532.6c0 1.1.3 1.4.6.6.3-.7.2-1.6-.1-1.9-.3-.4-.6.2-.5 1.3zM165.1 539.6c0 1.1.3 1.4.6.6.3-.7.2-1.6-.1-1.9-.3-.4-.6.2-.5 1.3zM162.7 548.2c-.9 3.7-1.7 7.3-1.6 8 0 .7.9-1.9 2-5.7 1-3.9 1.7-7.4 1.6-8-.2-.5-1.1 2.1-2 5.7zM160.2 560c0 1.4.2 1.9.5 1.2.2-.6.2-1.8 0-2.5-.3-.6-.5-.1-.5 1.3zM159.2 565c0 1.4.2 1.9.5 1.2.2-.6.2-1.8 0-2.5-.3-.6-.5-.1-.5 1.3zM158.2 570c0 1.4.2 1.9.5 1.2.2-.6.2-1.8 0-2.5-.3-.6-.5-.1-.5 1.3zM157.2 575c0 1.4.2 1.9.5 1.2.2-.6.2-1.8 0-2.5-.3-.6-.5-.1-.5 1.3zM156.5 584.5c.4 7.8 1.9 10.5 5.5 10.5 2.8 0 3-.2 2-2-.6-1.1-2.2-2.3-3.5-2.6-2.5-.6-3-1.6-3.9-7.9-.2-1.7-.3-.8-.1 2zM198.5 591.8c-1 2.7-.4 3.2 4.5 3.2 5.3 0 5.7-.4 3.6-3.2-1.5-2-7.3-2-8.1 0z"/></svg>