<?xml version="1.0" encoding="UTF-8" standalone="no"?>
<svg
   xmlns:dc="http://purl.org/dc/elements/1.1/"
   xmlns:cc="http://creativecommons.org/ns#"
   xmlns:rdf="http://www.w3.org/1999/02/22-rdf-syntax-ns#"
   xmlns:svg="http://www.w3.org/2000/svg"
   xmlns="http://www.w3.org/2000/svg"
   id="svg8"
   version="1.1"
   viewBox="0 0 567.55414 215.17248"
   height="215.17249mm"
   width="567.55414mm">
  <defs
     id="defs2" />
  <metadata
     id="metadata5">
    <rdf:RDF>
      <cc:Work
         rdf:about="">
        <dc:format>image/svg+xml</dc:format>
        <dc:type
           rdf:resource="http://purl.org/dc/dcmitype/StillImage" />
        <dc:title></dc:title>
      </cc:Work>
    </rdf:RDF>
  </metadata>
  <g
     transform="translate(514.57065,99.152885)"
     id="layer1">
    <g
       transform="matrix(0.03527778,0,0,-0.03527778,-590.83598,474.82554)"
       fill="#FFFFFF"
       stroke="none"
       id="g56">
      <path
         d="m 3863,16251 c -115,-71 -285,-435 -554,-1189 -81,-229 -240,-738 -350,-1127 -44,-154 -97,-341 -119,-415 -147,-504 -270,-977 -440,-1685 -21,-88 -47,-196 -59,-240 -24,-93 -89,-401 -125,-590 -55,-292 -67,-442 -41,-530 14,-51 27,-70 89,-130 39,-38 94,-82 121,-97 116,-62 321,-93 459,-69 58,10 297,105 331,131 6,4 101,53 211,109 111,56 217,112 235,124 19,13 68,41 109,64 112,60 254,148 355,218 50,34 117,77 150,96 33,18 113,69 178,112 151,100 407,254 472,283 28,12 77,27 110,33 226,39 227,39 257,68 76,72 76,153 0,193 -67,34 -242,28 -392,-12 -41,-11 -88,-24 -105,-28 -102,-25 -435,-166 -590,-249 -38,-21 -110,-60 -160,-86 -49,-27 -157,-90 -240,-140 -365,-222 -765,-436 -915,-487 -103,-35 -205,-46 -251,-28 -47,20 -69,75 -69,180 0,107 41,314 165,835 19,83 42,179 50,215 35,155 222,900 310,1235 13,50 36,135 50,190 14,55 37,141 50,190 14,50 52,191 85,315 219,813 417,1477 550,1838 13,34 30,43 30,16 0,-8 13,-29 29,-45 62,-61 155,-23 179,74 18,75 44,279 49,394 7,133 -8,188 -61,228 -41,31 -107,34 -153,6 z"
         id="path48" />
      <path
         d="m 12644,15656 c -74,-17 -210,-83 -284,-139 -206,-154 -589,-615 -794,-957 -98,-163 -277,-532 -359,-740 -233,-592 -365,-1228 -343,-1659 20,-381 89,-621 224,-778 74,-85 120,-114 237,-148 107,-31 184,-32 296,-4 192,48 337,143 570,373 178,176 284,299 400,463 43,61 84,115 90,119 15,9 7,-75 -26,-251 -21,-112 -71,-420 -120,-730 -8,-49 -24,-160 -35,-245 -11,-85 -25,-183 -31,-217 -18,-103 16,-161 113,-192 61,-20 87,2 184,149 46,71 87,142 90,158 13,65 -69,101 -121,52 -14,-13 -25,-19 -25,-14 0,5 11,72 25,149 14,77 32,183 40,235 8,52 19,118 25,145 5,28 26,154 45,280 20,127 49,307 66,400 16,94 36,222 44,285 39,290 47,335 82,415 30,68 34,88 30,132 -3,29 -2,55 2,57 4,3 50,12 102,20 105,17 314,75 390,107 97,42 126,114 68,171 -30,30 -32,31 -102,25 -40,-3 -115,-17 -167,-32 -52,-14 -137,-35 -189,-48 l -93,-22 -22,26 c -25,32 -57,49 -88,49 -35,0 -83,-34 -97,-68 -14,-33 -22,-37 -86,-46 -22,-3 -175,-28 -340,-55 -165,-27 -338,-52 -385,-56 -143,-11 -335,-42 -368,-59 -40,-21 -59,-74 -40,-113 25,-53 68,-65 203,-59 65,3 157,11 205,16 47,6 184,22 305,36 271,31 362,42 398,50 18,4 27,2 27,-6 0,-14 -104,-218 -186,-365 -261,-468 -545,-824 -810,-1017 -28,-21 -87,-55 -130,-75 -75,-36 -84,-38 -179,-38 -99,0 -101,1 -149,35 -95,68 -154,229 -177,485 -14,157 -7,308 27,545 63,455 239,1047 436,1468 233,500 426,835 608,1052 182,219 401,408 492,425 48,9 102,-17 134,-64 48,-73 65,-146 71,-302 8,-195 -6,-315 -86,-769 -26,-145 -27,-192 -3,-213 22,-20 52,-22 74,-4 31,23 88,155 118,268 16,63 41,184 56,269 23,134 27,184 28,370 1,177 -2,229 -18,295 -40,175 -108,271 -231,330 -86,42 -139,49 -221,31 z"
         id="path50" />
      <path
         d="m 14093,13969 c -192,-25 -404,-345 -407,-614 -1,-71 3,-88 32,-147 38,-78 89,-121 170,-144 123,-36 276,-7 416,77 37,22 71,39 75,37 5,-2 -7,-55 -26,-118 -19,-63 -59,-211 -89,-329 -124,-489 -130,-735 -20,-802 68,-41 139,-14 256,98 128,122 195,217 431,607 l 17,29 20,-40 c 39,-75 113,-80 195,-12 36,30 274,319 284,346 3,7 11,13 18,13 8,0 15,-22 19,-62 10,-89 52,-249 81,-311 54,-113 123,-167 215,-167 70,0 131,32 216,112 39,37 74,68 76,68 3,0 8,-31 10,-68 6,-88 42,-155 120,-228 44,-40 73,-58 115,-70 78,-23 196,-14 284,21 129,51 302,184 410,317 56,68 67,77 73,56 2,-7 12,-38 21,-68 48,-159 170,-239 318,-210 79,15 137,45 228,118 108,86 360,343 438,447 89,118 161,234 161,260 0,12 -12,33 -27,47 -75,68 -98,55 -306,-175 -225,-248 -345,-363 -432,-415 -88,-52 -123,-60 -153,-35 -29,23 -82,154 -89,218 -5,46 -2,55 35,110 24,35 102,116 187,193 216,197 304,317 341,462 31,123 -4,221 -96,268 -176,89 -391,-91 -557,-466 -41,-93 -60,-161 -68,-242 -11,-105 -30,-147 -127,-287 -221,-314 -398,-473 -526,-473 -165,0 -220,296 -111,602 49,140 139,274 178,266 13,-3 16,-17 13,-87 -3,-93 7,-115 58,-126 63,-14 118,53 136,163 17,105 -68,196 -192,209 -45,5 -59,2 -98,-21 -87,-51 -194,-189 -348,-451 -50,-84 -142,-207 -192,-254 -35,-34 -36,-34 -51,-15 -60,76 -154,266 -201,403 -73,214 -168,202 -336,-42 -65,-94 -167,-217 -180,-217 -42,0 93,320 198,467 89,125 138,133 241,41 24,-21 52,-38 64,-38 28,0 79,56 79,88 0,41 -56,117 -113,154 -46,30 -60,33 -138,36 -102,5 -150,-12 -232,-80 -82,-69 -211,-240 -274,-363 -31,-60 -66,-126 -78,-145 -12,-19 -68,-125 -125,-235 -103,-200 -154,-292 -233,-416 -99,-155 -113,-160 -103,-35 12,139 36,252 113,521 40,143 83,305 94,360 40,197 -5,305 -126,305 -52,0 -88,-18 -165,-80 -57,-47 -123,-91 -128,-86 -2,2 17,39 42,83 75,130 107,222 113,327 5,79 3,99 -15,138 -35,80 -123,121 -229,107 z m 34,-244 c -13,-81 -201,-470 -228,-470 -7,0 -16,14 -21,30 -19,66 21,201 91,307 47,72 135,168 154,168 5,0 7,-15 4,-35 z m 3423,-117 c 0,-32 -163,-248 -177,-234 -11,11 78,157 130,214 33,34 47,40 47,20 z"
         id="path52" />
      <path
         d="m 9095,13881 c -68,-31 -202,-148 -285,-248 -108,-131 -182,-257 -255,-440 -26,-64 -55,-110 -117,-188 -46,-56 -117,-146 -158,-200 -41,-53 -129,-165 -195,-249 -66,-83 -167,-213 -224,-289 -113,-150 -113,-150 -163,-85 -57,75 -165,262 -261,451 l -102,202 v 130 c 0,120 2,134 27,187 33,71 100,136 185,179 57,29 76,34 137,33 39,0 95,-4 123,-8 38,-6 57,-5 68,4 20,16 55,96 55,124 0,52 -133,133 -231,142 -103,10 -273,-42 -374,-114 -70,-49 -112,-90 -146,-141 -77,-113 -109,-214 -109,-344 v -86 l -67,-56 c -122,-104 -275,-185 -349,-185 -21,0 -22,2 -21,148 0,128 -3,160 -26,244 -33,123 -56,167 -109,213 -68,58 -109,75 -182,75 -57,0 -69,-4 -107,-32 -23,-18 -58,-55 -76,-82 -29,-43 -45,-54 -106,-80 -79,-32 -163,-87 -244,-160 -29,-26 -87,-71 -129,-99 -42,-29 -95,-64 -117,-79 -23,-16 -44,-28 -48,-28 -4,0 -9,78 -11,173 -3,156 -6,177 -27,220 -38,77 -101,133 -178,157 -72,22 -153,26 -186,9 -45,-24 -107,-81 -128,-119 -18,-32 -28,-40 -51,-40 -66,0 -158,-62 -222,-149 -55,-74 -115,-203 -131,-278 -22,-103 -19,-246 6,-324 62,-192 270,-324 455,-290 73,14 184,54 233,85 67,43 181,200 181,251 0,18 25,29 104,44 33,6 88,24 124,41 35,16 68,30 73,30 5,0 9,-20 9,-45 0,-93 69,-235 151,-311 112,-103 286,-141 427,-93 112,38 204,144 263,304 26,70 31,75 82,75 86,0 262,80 389,176 55,41 47,51 107,-116 56,-154 129,-297 238,-465 125,-195 160,-261 148,-279 -60,-89 -104,-150 -181,-256 -205,-281 -286,-498 -255,-689 13,-81 44,-145 87,-178 73,-55 229,-38 349,38 125,79 219,199 300,380 73,164 96,259 102,429 5,135 4,152 -21,244 -22,82 -24,102 -14,117 98,136 580,739 591,739 2,0 2,-61 -1,-135 -5,-148 7,-218 56,-322 82,-177 276,-231 474,-132 153,77 430,347 654,639 143,186 194,263 194,295 0,44 -29,67 -92,73 l -52,5 -110,-119 c -318,-341 -553,-551 -700,-624 -88,-45 -106,-48 -129,-22 -25,28 -40,153 -33,277 10,163 22,208 60,231 17,10 72,58 123,107 90,87 229,272 286,382 80,152 121,327 98,412 -30,110 -135,161 -236,114 z m -54,-369 c -39,-76 -201,-276 -201,-248 0,38 128,236 182,281 39,33 46,20 19,-33 z m -2678,-389 c 9,-17 24,-65 32,-108 17,-87 20,-245 5,-245 -16,0 -81,62 -109,105 -23,35 -26,50 -26,126 0,79 2,89 28,123 33,42 44,42 70,-1 z m -1187,-15 c 37,-72 61,-348 31,-348 -19,0 -94,75 -114,113 -25,48 -29,148 -9,202 27,70 65,84 92,33 z m -286,-278 c 23,-61 100,-169 172,-242 l 69,-70 -28,-30 c -36,-38 -94,-68 -131,-68 -110,0 -190,186 -149,346 32,124 41,133 67,64 z m 1176,23 c 24,-98 114,-210 212,-265 28,-17 52,-35 52,-41 0,-21 -90,-96 -126,-106 -73,-20 -129,12 -171,97 -24,49 -28,69 -28,147 0,65 5,105 19,143 22,59 33,65 42,25 z m 1625,-1347 c -14,-101 -57,-225 -112,-323 -69,-120 -227,-269 -249,-233 -18,30 32,179 112,328 51,97 177,304 216,357 l 37,50 3,-50 c 2,-27 -1,-85 -7,-129 z"
         id="path54" />
    </g>
  </g>
</svg>
